<svg xmlns="http://www.w3.org/2000/svg" xmlns:xlink="http://www.w3.org/1999/xlink" width="95.885mm" height="73.406mm" viewBox="4027.3 3044.5 377.5 289"><title></title><style type="text/css">
*[layerid="1"] {stroke:#000000;fill:#000000;}
*[layerid="2"] {stroke:#000000;fill:#000000;}
*[layerid="3"] {stroke:#000000;fill:#000000;}
*[layerid="4"] {stroke:#000000;fill:#000000;}
*[layerid="5"] {stroke:#000000;fill:#000000;}
*[layerid="6"] {stroke:#000000;fill:#000000;}
*[layerid="7"] {stroke:#000000;fill:#000000;}
*[layerid="8"] {stroke:#000000;fill:#000000;}
*[layerid="9"] {stroke:#000000;fill:#000000;}
*[layerid="10"] {stroke:#000000;fill:#000000;}
*[layerid="11"] {stroke:#000000;fill:#000000;}
*[layerid="12"] {stroke:#000000;fill:#000000;}
*[layerid="13"] {stroke:#000000;fill:#000000;}
*[layerid="14"] {stroke:#000000;fill:#000000;}
*[layerid="15"] {stroke:#000000;fill:#000000;}
*[layerid="19"] {stroke:#000000;fill:#000000;}
*[layerid="21"] {stroke:#000000;fill:#000000;}
*[layerid="22"] {stroke:#000000;fill:#000000;}
*[layerid="23"] {stroke:#000000;fill:#000000;}
*[layerid="24"] {stroke:#000000;fill:#000000;}
*[layerid="25"] {stroke:#000000;fill:#000000;}
*[layerid="26"] {stroke:#000000;fill:#000000;}
*[layerid="27"] {stroke:#000000;fill:#000000;}
*[layerid="28"] {stroke:#000000;fill:#000000;}
*[layerid="29"] {stroke:#000000;fill:#000000;}
*[layerid="30"] {stroke:#000000;fill:#000000;}
*[layerid="31"] {stroke:#000000;fill:#000000;}
*[layerid="32"] {stroke:#000000;fill:#000000;}
*[layerid="33"] {stroke:#000000;fill:#000000;}
*[layerid="34"] {stroke:#000000;fill:#000000;}
*[layerid="35"] {stroke:#000000;fill:#000000;}
*[layerid="36"] {stroke:#000000;fill:#000000;}
*[layerid="37"] {stroke:#000000;fill:#000000;}
*[layerid="38"] {stroke:#000000;fill:#000000;}
*[layerid="39"] {stroke:#000000;fill:#000000;}
*[layerid="40"] {stroke:#000000;fill:#000000;}
*[layerid="41"] {stroke:#000000;fill:#000000;}
*[layerid="42"] {stroke:#000000;fill:#000000;}
*[layerid="43"] {stroke:#000000;fill:#000000;}
*[layerid="44"] {stroke:#000000;fill:#000000;}
*[layerid="45"] {stroke:#000000;fill:#000000;}
*[layerid="46"] {stroke:#000000;fill:#000000;}
*[layerid="47"] {stroke:#000000;fill:#000000;}
*[layerid="48"] {stroke:#000000;fill:#000000;}
*[layerid="49"] {stroke:#000000;fill:#000000;}
*[layerid="50"] {stroke:#000000;fill:#000000;}
*[layerid="51"] {stroke:#000000;fill:#000000;}
*[layerid="52"] {stroke:#000000;fill:#000000;}
*[layerid="99"] {stroke:#000000;fill:#000000;}
*[layerid="100"] {stroke:#000000;fill:#000000;}
*[layerid="Hole"] {stroke:#000000;fill:#000000;}
*[layerid="DRCError"] {stroke:#000000;fill:#000000;}
*[fill="none"] {fill: none;}
*[stroke="none"] {stroke: none;}
path, polyline, polygon, line {stroke-linecap:round;}
g[c_partid="part_pad"][layerid="1"] ellipse:not([c_etype="pad_outer"]) {fill:#000000;}
g[c_partid="part_pad"][layerid="1"] polygon:not([c_etype="pad_outer"]) {fill:#000000;}
g[c_partid="part_pad"][layerid="1"] polyline:not([c_etype="pad_outer"]) {stroke:#000000;}
g[c_partid="part_pad"][layerid="2"] ellipse:not([c_etype="pad_outer"]) {fill:#000000;}
g[c_partid="part_pad"][layerid="2"] polygon:not([c_etype="pad_outer"]) {fill:#000000;}
g[c_partid="part_pad"][layerid="2"] polyline:not([c_etype="pad_outer"]) {stroke:#000000;}
g[c_partid="part_pad"][layerid="11"] ellipse:not([c_etype="pad_outer"]) {fill:#000000;}
g[c_partid="part_pad"][layerid="11"] polygon:not([c_etype="pad_outer"]) {fill:#000000;}
g[c_partid="part_pad"][layerid="11"] polyline:not([c_etype="pad_outer"]) {stroke:#000000;}
g[c_partid="part_pad"][layerid="11"] circle {fill:#FFFFFF;}
g[c_partid="part_pad"][layerid="11"] > polyline:nth-of-type(2) {stroke:#FFFFFF;}
g[c_partid="part_pad"][layerid="11"][c_shape="ELLIPSE"]  polyline:nth-last-of-type(1) {stroke:#FFFFFF;}
g[c_partid="part_pad"][layerid="11"][c_shape="RECT"]  polyline:nth-last-of-type(1) {stroke:#FFFFFF;}
g[c_partid="part_pad"][layerid="11"][c_shape="POLYGON"]  polyline:nth-last-of-type(1) {stroke:#FFFFFF;}
g[c_partid="part_via"] > * + circle, #gCurParts g[c_partid="part_via"] > * + circle {fill:#FFFFFF;}
g[c_partid="part_pad"] > polygon[c_etype="pad_outer"], #gCurParts g[c_partid="part_pad"] > polygon[c_etype="pad_outer"] {stroke-linejoin: miter;stroke-miterlimit: 100;}
g[c_partid="part_hole"] > circle {fill: #FFFFFF;}path, polyline, polygon {stroke-linejoin:round;}
rect, circle, ellipse, polyline, line, polygon, path {shape-rendering:crispEdges;}
</style>
<rect x="4027.3" y="3044.5" width="377.5" height="289" fill="#FFFFFF" stroke="none"/><path d="M 4211.52283 3322.49 A 0.4 0.4 0 0 1 4211.12283 3322.09 0.4 0.4 0 0 1 4211.23999 3321.80716 L 4211.56124 3321.48591 A 0.4 0.4 0 0 1 4211.84408 3321.36875 L 4242.84 3321.36875 A 8.86875 8.86875 0 0 0 4249.11115 3318.77115 L 4249.11115 3318.77115 4293.11115 3274.77115 4293.11115 3274.77115 A 8.86875 8.86875 0 0 0 4295.70875 3268.5 L 4295.70875 3268.5 4295.70875 3156.83924 A 0.4 0.4 0 0 1 4295.82591 3156.5564 L 4314.61115 3137.77115 4314.61115 3137.77115 A 8.86875 8.86875 0 0 0 4317.20875 3131.5 L 4317.20875 3131.5 4317.20875 3104.76875 A 0.4 0.4 0 0 1 4317.60875 3104.36875 L 4341.22273 3104.36875 A 0.4 0.4 0 0 1 4341.3086 3104.37808 5.916 5.916 0 0 0 4342.5786 3104.516 L 4342.5786 3104.516 4348.7786 3104.516 4348.7786 3104.516 A 5.916 5.916 0 0 0 4354.6946 3098.6 L 4354.6946 3098.6 4354.6946 3092.4 4354.6946 3092.4 A 5.916 5.916 0 0 0 4348.7786 3086.484 L 4348.7786 3086.484 4342.5786 3086.484 4342.5786 3086.484 A 5.916 5.916 0 0 0 4341.3086 3086.62192 L 4341.3086 3086.62192 A 0.4 0.4 0 0 1 4341.22273 3086.63125 L 4308.84 3086.63125 A 8.86875 8.86875 0 0 0 4302.56885 3089.22885 L 4302.56885 3089.22885 4302.06885 3089.72885 4302.06885 3089.72885 A 8.86875 8.86875 0 0 0 4301.60402 3090.231 L 4301.60402 3090.231 A 0.4 0.4 0 0 1 4301.30022 3090.3708 0.4 0.4 0 0 1 4300.97644 3090.20569 L 4300.97644 3090.20569 A 9.016 9.016 0 0 0 4295.4786 3086.66551 L 4295.4786 3093.7 4299.26808 3093.7 A 0.4 0.4 0 0 1 4299.66808 3094.1 0.4 0.4 0 0 1 4299.65959 3094.182 8.86875 8.86875 0 0 0 4299.47125 3096 L 4299.47125 3096 4299.47125 3096.9 A 0.4 0.4 0 0 1 4299.07125 3097.3 L 4295.4786 3097.3 4295.4786 3104.33449 A 9.016 9.016 0 0 0 4298.84217 3102.89093 L 4298.84217 3102.89093 A 0.4 0.4 0 0 1 4299.07125 3102.81883 0.4 0.4 0 0 1 4299.47125 3103.21883 L 4299.47125 3127.66076 A 0.4 0.4 0 0 1 4299.35409 3127.9436 L 4280.56885 3146.72885 4280.56885 3146.72885 A 8.86875 8.86875 0 0 0 4277.97125 3153 L 4277.97125 3153 4277.97125 3264.66076 A 0.4 0.4 0 0 1 4277.85409 3264.9436 L 4246.30104 3296.49665 A 0.4 0.4 0 0 1 4246.0182 3296.61381 0.4 0.4 0 0 1 4245.6182 3296.21381 L 4245.6182 3278.47344 A 0.4 0.4 0 0 1 4246.0182 3278.07344 0.4 0.4 0 0 1 4246.11836 3278.08619 L 4246.11836 3278.08619 A 8.86875 8.86875 0 0 0 4248.3392 3278.36875 8.86875 8.86875 0 0 0 4257.20795 3269.5 L 4257.20795 3269.5 4257.20795 3267.76584 A 0.4 0.4 0 0 1 4257.60795 3267.36584 0.4 0.4 0 0 1 4257.60023 3267.36592 L 4257.61796 3267.36597 A 8.86875 8.86875 0 0 0 4257.84 3267.36875 L 4260.84 3267.36875 A 8.86875 8.86875 0 0 0 4269.70875 3258.5 L 4269.70875 3258.5 4269.70875 3140.83924 A 0.4 0.4 0 0 1 4269.82591 3140.5564 L 4290.11115 3120.27115 4290.11115 3120.27115 A 8.86875 8.86875 0 0 0 4292.70875 3114 L 4292.70875 3114 4292.70875 3104.89874 4292.70875 3095.66 4292.70875 3095.66 A 8.86875 8.86875 0 0 0 4292.66942 3094.82573 0.4 0.4 0 0 1 4292.66956 3094.82711 L 4292.6688 3094.81835 4292.6688 3094.81835 A 9.016 9.016 0 0 0 4291.91326 3091.82868 L 4291.91326 3091.82868 A 0.4 0.4 0 0 1 4291.8786 3091.6658 L 4291.8786 3086.66551 A 9.016 9.016 0 0 0 4288.891 3087.86016 0.4 0.4 0 0 1 4288.6786 3087.92121 0.4 0.4 0 0 1 4288.4662 3087.86016 9.016 9.016 0 0 0 4283.6786 3086.484 9.016 9.016 0 0 0 4278.891 3087.86016 0.4 0.4 0 0 1 4278.6786 3087.92121 0.4 0.4 0 0 1 4278.4662 3087.86016 9.016 9.016 0 0 0 4273.6786 3086.484 9.016 9.016 0 0 0 4272.41429 3086.57309 L 4272.41429 3086.57309 A 0.4 0.4 0 0 1 4272.3582 3086.57704 0.4 0.4 0 0 1 4271.9582 3086.17704 L 4271.9582 3060.5 4271.9582 3060.5 A 8.2782 8.2782 0 0 0 4270.70552 3056.12156 0.4 0.4 0 0 1 4270.64499 3055.91 0.4 0.4 0 0 1 4271.04499 3055.51 L 4393.26723 3055.51 A 0.4 0.4 0 0 1 4393.66723 3055.91 L 4393.66723 3055.91079 4393.64516 3067.14114 A 0.4 0.4 0 0 1 4393.24516 3067.54035 0.4 0.4 0 0 1 4392.87422 3067.29001 L 4392.87422 3067.29001 A 9.916 9.916 0 0 0 4383.6784 3061.084 9.916 9.916 0 0 0 4373.7624 3071 9.916 9.916 0 0 0 4383.6784 3080.916 9.916 9.916 0 0 0 4392.85957 3074.7461 0.4 0.4 0 0 1 4393.22992 3074.49721 0.4 0.4 0 0 1 4393.62992 3074.89721 L 4393.62992 3074.898 4393.20283 3292.28728 A 0.4 0.4 0 0 1 4392.80283 3292.68649 0.4 0.4 0 0 1 4392.42965 3292.43048 L 4392.42965 3292.43048 A 9.916 9.916 0 0 0 4383.1784 3286.084 9.916 9.916 0 0 0 4373.2624 3296 9.916 9.916 0 0 0 4383.1784 3305.916 9.916 9.916 0 0 0 4392.41555 3299.60584 L 4392.41555 3299.60584 A 0.4 0.4 0 0 1 4392.78817 3299.3513 0.4 0.4 0 0 1 4393.18817 3299.7513 L 4393.18817 3299.75208 4393.17 3308.99802 4393.17 3308.99802 A 0.4 0.4 0 0 1 4393.16999 3308.99791 L 4393.17 3309 4393.17 3322.09 A 0.4 0.4 0 0 1 4392.77 3322.49 L 4211.52283 3322.49 Z M 4336.38755 3254.30415 A 5.916 5.916 0 0 0 4342.30355 3260.22015 L 4342.30355 3260.22015 4355.67825 3260.22015 4355.67825 3260.22015 A 5.916 5.916 0 0 0 4361.59425 3254.30415 L 4361.59425 3220.56781 A 0.4 0.4 0 0 1 4361.99425 3220.16781 0.4 0.4 0 0 1 4362.08845 3220.17906 L 4362.08845 3220.17906 A 5.916 5.916 0 0 0 4363.48165 3220.34545 L 4363.48165 3220.34545 4382.54035 3220.34545 4382.54035 3220.34545 A 5.916 5.916 0 0 0 4388.45635 3214.42945 L 4388.45635 3161.04725 A 5.916 5.916 0 0 0 4382.54035 3155.13125 L 4382.54035 3155.13125 4363.48165 3155.13125 4363.48165 3155.13125 A 5.916 5.916 0 0 0 4362.08845 3155.29764 L 4362.08845 3155.29764 A 0.4 0.4 0 0 1 4361.99425 3155.30889 0.4 0.4 0 0 1 4361.59425 3154.90889 L 4361.59425 3112.00985 A 5.916 5.916 0 0 0 4355.67825 3106.09385 L 4355.67825 3106.09385 4342.30355 3106.09385 4342.30355 3106.09385 A 5.916 5.916 0 0 0 4336.38755 3112.00985 L 4336.38755 3254.30415 Z M 4329.25295 3308.99755 A 5.916 5.916 0 0 0 4335.16895 3303.08155 L 4335.16895 3162.83465 A 5.916 5.916 0 0 0 4329.25295 3156.91865 L 4329.25295 3156.91865 4311.14275 3156.91865 4311.14275 3156.91865 A 5.916 5.916 0 0 0 4305.22675 3162.83465 L 4305.22675 3303.08155 A 5.916 5.916 0 0 0 4311.14275 3308.99755 L 4311.14275 3308.99755 4329.25295 3308.99755 Z M 4362.7624 3275 A 9.916 9.916 0 0 0 4372.6784 3284.916 9.916 9.916 0 0 0 4382.5944 3275 9.916 9.916 0 0 0 4372.6784 3265.084 9.916 9.916 0 0 0 4362.7624 3275 Z M 4362.7624 3095.5 A 9.916 9.916 0 0 0 4372.6784 3105.416 9.916 9.916 0 0 0 4382.5944 3095.5 9.916 9.916 0 0 0 4372.6784 3085.584 9.916 9.916 0 0 0 4362.7624 3095.5 Z " stroke-width="0" layerid="2" attachedcopperid="gge3746" c_shapetype="line" id="gge3746_0" class=""></path><path d="M 4078.19717 3322.09 A 0.4 0.4 0 0 1 4077.79717 3322.49 L 4039.24658 3322.49 A 0.4 0.4 0 0 1 4038.84658 3322.09074 L 4038.79642 3295.10535 4038.79642 3295.10461 A 0.4 0.4 0 0 1 4039.19642 3294.70461 0.4 0.4 0 0 1 4039.58346 3295.00361 L 4039.58346 3295.00361 A 9.916 9.916 0 0 0 4049.1782 3302.416 9.916 9.916 0 0 0 4059.0942 3292.5 9.916 9.916 0 0 0 4049.1782 3282.584 9.916 9.916 0 0 0 4039.57422 3290.03207 0.4 0.4 0 0 1 4039.18681 3290.33252 0.4 0.4 0 0 1 4038.78681 3289.93326 L 4038.61913 3199.72059 4038.61913 3199.71985 A 0.4 0.4 0 0 1 4039.01913 3199.31985 0.4 0.4 0 0 1 4039.34967 3199.49458 L 4039.34967 3199.49458 A 8.86875 8.86875 0 0 0 4040.40715 3200.77115 L 4042.90715 3203.27115 A 8.86875 8.86875 0 0 0 4049.1783 3205.86875 8.86875 8.86875 0 0 0 4058.04705 3197 8.86875 8.86875 0 0 0 4055.65494 3190.9413 L 4055.65494 3190.9413 A 0.4 0.4 0 0 1 4055.54705 3190.66804 L 4055.54705 3185.54613 A 0.4 0.4 0 0 1 4055.94705 3185.14613 0.4 0.4 0 0 1 4056.28777 3185.33658 8.2782 8.2782 0 0 0 4057.48563 3186.85357 L 4058.48563 3187.85357 A 8.2782 8.2782 0 0 0 4064.3392 3190.2782 L 4064.3392 3190.2782 4066.46776 3190.2782 A 0.4 0.4 0 0 1 4066.86776 3190.6782 0.4 0.4 0 0 1 4066.77901 3190.92944 8.86875 8.86875 0 0 0 4064.81125 3196.5 8.86875 8.86875 0 0 0 4073.68 3205.36875 L 4135.18 3205.36875 A 8.86875 8.86875 0 0 0 4137.7432 3204.99027 L 4137.7432 3204.99027 A 0.4 0.4 0 0 1 4137.85881 3204.9732 0.4 0.4 0 0 1 4138.25881 3205.3732 0.4 0.4 0 0 1 4138.14165 3205.65605 L 4110.7836 3233.01409 A 0.4 0.4 0 0 1 4110.50076 3233.13125 L 4104.84 3233.13125 A 8.86875 8.86875 0 0 0 4095.97125 3242 L 4095.97125 3245.22688 4095.97125 3252.53845 A 0.4 0.4 0 0 1 4095.96228 3252.62267 L 4095.96228 3252.62267 A 8.916 8.916 0 0 0 4095.7624 3254.5 8.916 8.916 0 0 0 4096.37262 3257.74178 L 4096.37262 3257.74178 A 0.4 0.4 0 0 1 4096.4 3257.88722 L 4096.4 3263.72178 4096.4 3293.80123 A 0.4 0.4 0 0 1 4096 3294.20123 0.4 0.4 0 0 1 4095.71517 3294.08207 9.853 9.853 0 0 0 4090.9177 3291.40001 L 4090.9177 3298.7815 4096.22967 3298.7815 A 0.4 0.4 0 0 1 4096.61908 3299.09008 8.2782 8.2782 0 0 0 4098.37061 3302.55945 0.4 0.4 0 0 1 4098.46583 3302.8185 0.4 0.4 0 0 1 4098.06583 3303.2185 L 4090.9177 3303.2185 4090.9177 3309.3218 A 0.4 0.4 0 0 1 4090.5177 3309.7218 L 4089.57463 3309.7218 A 0.4 0.4 0 0 1 4089.29179 3309.60464 L 4086.59786 3306.91071 A 0.4 0.4 0 0 1 4086.4807 3306.62787 L 4086.4807 3303.2185 4083.07133 3303.2185 A 0.4 0.4 0 0 1 4082.78849 3303.10134 L 4079.15149 3299.46434 A 0.4 0.4 0 0 1 4079.03433 3299.1815 0.4 0.4 0 0 1 4079.43433 3298.7815 L 4086.4807 3298.7815 4086.4807 3291.40001 A 9.853 9.853 0 0 0 4079.22387 3298.29821 0.4 0.4 0 0 1 4078.8392 3298.58852 0.4 0.4 0 0 1 4078.45453 3298.29821 L 4078.45453 3298.29821 A 9.853 9.853 0 0 0 4077.88712 3296.78923 0.4 0.4 0 0 1 4077.84875 3296.61828 L 4077.84875 3263.76875 A 0.4 0.4 0 0 1 4078.24875 3263.36875 L 4083.74131 3263.36875 A 0.4 0.4 0 0 1 4083.78155 3263.37078 L 4083.78155 3263.37078 A 8.916 8.916 0 0 0 4084.6784 3263.416 8.916 8.916 0 0 0 4089.46372 3262.02302 L 4089.46372 3262.02302 A 0.4 0.4 0 0 1 4089.6784 3261.96053 0.4 0.4 0 0 1 4089.89308 3262.02302 L 4089.89308 3262.02302 A 8.916 8.916 0 0 0 4092.9284 3263.24257 L 4092.9284 3257.9591 A 0.4 0.4 0 0 1 4092.957 3257.81057 8.916 8.916 0 0 0 4093.5944 3254.5 8.916 8.916 0 0 0 4092.957 3251.18943 0.4 0.4 0 0 1 4092.9284 3251.0409 L 4092.9284 3245.75743 A 8.916 8.916 0 0 0 4089.89308 3246.97698 L 4089.89308 3246.97698 A 0.4 0.4 0 0 1 4089.6784 3247.03947 0.4 0.4 0 0 1 4089.46372 3246.97698 L 4089.46372 3246.97698 A 8.916 8.916 0 0 0 4084.6784 3245.584 8.916 8.916 0 0 0 4083.78155 3245.62922 0.4 0.4 0 0 1 4083.74131 3245.63125 L 4068.98 3245.63125 A 8.86875 8.86875 0 0 0 4060.11125 3254.5 L 4060.11125 3296.6149 A 0.4 0.4 0 0 1 4060.07282 3296.78597 9.853 9.853 0 0 0 4059.1262 3301 9.853 9.853 0 0 0 4066.79344 3310.6075 0.4 0.4 0 0 1 4066.98755 3310.71469 L 4078.08001 3321.80716 A 0.4 0.4 0 0 1 4078.19717 3322.09 Z " stroke-width="0" layerid="2" attachedcopperid="gge3746" c_shapetype="line" id="gge3746_1" class=""></path><path d="M 4185.6607 3309.7218 A 0.4 0.4 0 0 1 4185.2607 3309.3218 L 4185.2607 3303.2185 4178.15433 3303.2185 A 0.4 0.4 0 0 1 4177.75433 3302.8185 0.4 0.4 0 0 1 4177.87149 3302.53566 L 4181.50849 3298.89866 A 0.4 0.4 0 0 1 4181.79133 3298.7815 L 4185.2607 3298.7815 4185.2607 3295.31213 A 0.4 0.4 0 0 1 4185.37786 3295.02929 L 4189.01486 3291.39229 A 0.4 0.4 0 0 1 4189.2977 3291.27513 0.4 0.4 0 0 1 4189.6977 3291.67513 L 4189.6977 3298.7815 4197.10876 3298.7815 A 0.4 0.4 0 0 1 4197.50876 3299.1815 0.4 0.4 0 0 1 4197.50241 3299.25245 L 4197.50241 3299.25245 A 9.853 9.853 0 0 0 4197.3462 3301 9.853 9.853 0 0 0 4197.50241 3302.74755 L 4197.50241 3302.74755 A 0.4 0.4 0 0 1 4197.50876 3302.8185 0.4 0.4 0 0 1 4197.10876 3303.2185 L 4189.6977 3303.2185 4189.6977 3309.3218 A 0.4 0.4 0 0 1 4189.2977 3309.7218 L 4185.6607 3309.7218 Z " stroke-width="0" layerid="2" attachedcopperid="gge3746" c_shapetype="line" id="gge3746_2" class=""></path><path d="M 4146.1609 3309.7218 A 0.4 0.4 0 0 1 4145.7609 3309.3218 L 4145.7609 3303.2185 4138.28984 3303.2185 4137.88896 3303.2185 4130.4179 3303.2185 4130.4179 3309.3218 A 0.4 0.4 0 0 1 4130.0179 3309.7218 L 4126.3809 3309.7218 A 0.4 0.4 0 0 1 4125.9809 3309.3218 L 4125.9809 3303.2185 4118.56984 3303.2185 A 0.4 0.4 0 0 1 4118.16984 3302.8185 0.4 0.4 0 0 1 4118.17619 3302.74755 L 4118.17619 3302.74755 A 9.853 9.853 0 0 0 4118.3324 3301 9.853 9.853 0 0 0 4118.17619 3299.25245 L 4118.17619 3299.25245 A 0.4 0.4 0 0 1 4118.16984 3299.1815 0.4 0.4 0 0 1 4118.56984 3298.7815 L 4125.9809 3298.7815 4125.9809 3295.08041 A 0.4 0.4 0 0 1 4126.3809 3294.68041 0.4 0.4 0 0 1 4126.44078 3294.68492 8.2782 8.2782 0 0 0 4127.68 3294.7782 L 4127.68 3294.7782 4130.0179 3294.7782 A 0.4 0.4 0 0 1 4130.4179 3295.1782 L 4130.4179 3298.7815 4137.88896 3298.7815 4138.28984 3298.7815 4145.7609 3298.7815 4145.7609 3295.1782 A 0.4 0.4 0 0 1 4146.1609 3294.7782 L 4149.60537 3294.7782 A 0.4 0.4 0 0 1 4149.88821 3294.89536 L 4150.08074 3295.08789 A 0.4 0.4 0 0 1 4150.1979 3295.37073 L 4150.1979 3298.7815 4153.60867 3298.7815 A 0.4 0.4 0 0 1 4153.89151 3298.89866 L 4157.52851 3302.53566 A 0.4 0.4 0 0 1 4157.64567 3302.8185 0.4 0.4 0 0 1 4157.24567 3303.2185 L 4150.1979 3303.2185 4150.1979 3309.3218 A 0.4 0.4 0 0 1 4149.7979 3309.7218 L 4146.1609 3309.7218 Z " stroke-width="0" layerid="2" attachedcopperid="gge3746" c_shapetype="line" id="gge3746_3" class=""></path><path d="M 4122.61011 3309.3218 A 0.4 0.4 0 0 1 4122.21011 3309.7218 L 4114.46869 3309.7218 A 0.4 0.4 0 0 1 4114.06869 3309.3218 0.4 0.4 0 0 1 4114.23503 3308.99714 9.853 9.853 0 0 0 4117.95473 3303.70179 0.4 0.4 0 0 1 4118.3394 3303.41148 0.4 0.4 0 0 1 4118.72407 3303.70179 L 4118.72407 3303.70179 A 9.853 9.853 0 0 0 4122.44377 3308.99714 0.4 0.4 0 0 1 4122.61011 3309.3218 Z " stroke-width="0" layerid="2" attachedcopperid="gge3746" c_shapetype="line" id="gge3746_4" class=""></path><path d="M 4142.39011 3309.3218 A 0.4 0.4 0 0 1 4141.99011 3309.7218 L 4134.18869 3309.7218 A 0.4 0.4 0 0 1 4133.78869 3309.3218 0.4 0.4 0 0 1 4133.95503 3308.99714 L 4133.95503 3308.99714 A 9.853 9.853 0 0 0 4137.70356 3303.59856 0.4 0.4 0 0 1 4138.0894 3303.30405 0.4 0.4 0 0 1 4138.47524 3303.59856 L 4138.47524 3303.59856 A 9.853 9.853 0 0 0 4142.22377 3308.99714 0.4 0.4 0 0 1 4142.39011 3309.3218 Z " stroke-width="0" layerid="2" attachedcopperid="gge3746" c_shapetype="line" id="gge3746_5" class=""></path><path d="M 4173.68869 3309.7218 A 0.4 0.4 0 0 1 4173.28869 3309.3218 0.4 0.4 0 0 1 4173.45503 3308.99714 9.853 9.853 0 0 0 4177.20347 3303.59891 0.4 0.4 0 0 1 4177.5893 3303.30442 0.4 0.4 0 0 1 4177.97513 3303.59891 L 4177.97513 3303.59891 A 9.853 9.853 0 0 0 4181.72357 3308.99714 0.4 0.4 0 0 1 4181.88991 3309.3218 0.4 0.4 0 0 1 4181.48991 3309.7218 L 4173.68869 3309.7218 Z " stroke-width="0" layerid="2" attachedcopperid="gge3746" c_shapetype="line" id="gge3746_6" class=""></path><path d="M 4153.96869 3309.7218 A 0.4 0.4 0 0 1 4153.56869 3309.3218 0.4 0.4 0 0 1 4153.73503 3308.99714 9.853 9.853 0 0 0 4157.45473 3303.70179 L 4157.45473 3303.70179 A 0.4 0.4 0 0 1 4157.8394 3303.41148 0.4 0.4 0 0 1 4158.22407 3303.70179 L 4158.22407 3303.70179 A 9.853 9.853 0 0 0 4161.94377 3308.99714 0.4 0.4 0 0 1 4162.11011 3309.3218 0.4 0.4 0 0 1 4161.71011 3309.7218 L 4153.96869 3309.7218 Z " stroke-width="0" layerid="2" attachedcopperid="gge3746" c_shapetype="line" id="gge3746_7" class=""></path><path d="M 4102.89011 3309.3218 A 0.4 0.4 0 0 1 4102.49011 3309.7218 L 4094.68849 3309.7218 A 0.4 0.4 0 0 1 4094.28849 3309.3218 0.4 0.4 0 0 1 4094.45483 3308.99714 9.853 9.853 0 0 0 4098.20346 3303.59821 L 4098.20346 3303.59821 A 0.4 0.4 0 0 1 4098.5893 3303.30369 0.4 0.4 0 0 1 4098.97514 3303.59821 L 4098.97514 3303.59821 A 9.853 9.853 0 0 0 4102.72377 3308.99714 0.4 0.4 0 0 1 4102.89011 3309.3218 Z " stroke-width="0" layerid="2" attachedcopperid="gge3746" c_shapetype="line" id="gge3746_8" class=""></path><path d="M 4138.47524 3298.40144 A 0.4 0.4 0 0 1 4138.0894 3298.69595 0.4 0.4 0 0 1 4137.70356 3298.40144 L 4137.70356 3298.40144 A 9.853 9.853 0 0 0 4136.30996 3295.40533 0.4 0.4 0 0 1 4136.23923 3295.1782 0.4 0.4 0 0 1 4136.63923 3294.7782 L 4139.53957 3294.7782 A 0.4 0.4 0 0 1 4139.93957 3295.1782 0.4 0.4 0 0 1 4139.86884 3295.40533 L 4139.86884 3295.40533 A 9.853 9.853 0 0 0 4138.47524 3298.40144 Z " stroke-width="0" layerid="2" attachedcopperid="gge3746" c_shapetype="line" id="gge3746_9" class=""></path><path d="M 4197.72387 3298.29821 A 0.4 0.4 0 0 1 4197.3392 3298.58852 0.4 0.4 0 0 1 4196.95453 3298.29821 L 4196.95453 3298.29821 A 9.853 9.853 0 0 0 4189.83331 3291.43236 L 4189.83331 3291.43236 A 0.4 0.4 0 0 1 4189.52888 3291.04394 0.4 0.4 0 0 1 4189.64604 3290.7611 L 4190.51179 3289.89536 A 0.4 0.4 0 0 1 4190.79463 3289.7782 L 4204.68 3289.7782 4204.68 3289.7782 A 8.2782 8.2782 0 0 0 4212.9582 3281.5 L 4212.9582 3281.5 4212.9582 3260.7908 A 0.4 0.4 0 0 1 4213.3582 3260.3908 0.4 0.4 0 0 1 4213.74579 3260.69194 L 4213.74579 3260.69194 A 8.86875 8.86875 0 0 0 4215.6333 3264.3037 L 4215.6333 3264.3037 A 0.4 0.4 0 0 1 4215.73084 3264.56546 0.4 0.4 0 0 1 4215.65487 3264.79999 L 4215.65487 3264.79999 A 8.86875 8.86875 0 0 0 4213.97045 3270 8.86875 8.86875 0 0 0 4222.8392 3278.86875 L 4227.8392 3278.86875 A 8.86875 8.86875 0 0 0 4228.6263 3278.83375 0.4 0.4 0 0 1 4228.6618 3278.83218 0.4 0.4 0 0 1 4229.0618 3279.23218 L 4229.0618 3292.3218 A 0.4 0.4 0 0 1 4228.6618 3292.7218 L 4212.65931 3292.7218 A 0.4 0.4 0 0 1 4212.4463 3292.66036 9.853 9.853 0 0 0 4207.1992 3291.147 9.853 9.853 0 0 0 4197.72387 3298.29821 Z " stroke-width="0" layerid="2" attachedcopperid="gge3746" c_shapetype="line" id="gge3746_10" class=""></path><path d="M 4213.3582 3256.6092 A 0.4 0.4 0 0 1 4212.9582 3256.2092 L 4212.9582 3248.16245 A 0.4 0.4 0 0 1 4213.3582 3247.76245 L 4216.77835 3247.76245 4216.77835 3247.76245 A 5.916 5.916 0 0 0 4220.22901 3246.65187 L 4220.22901 3246.65187 A 0.4 0.4 0 0 1 4220.46232 3246.57677 L 4222.73898 3246.57677 A 9.26245 9.26245 0 0 0 4222.12682 3244.70299 L 4222.12682 3244.70299 A 0.4 0.4 0 0 1 4222.09166 3244.53902 0.4 0.4 0 0 1 4222.12983 3244.3685 L 4222.12983 3244.3685 A 5.916 5.916 0 0 0 4222.69435 3241.84645 L 4222.69435 3241.84645 4222.69435 3235.15355 4222.69435 3235.15355 A 5.916 5.916 0 0 0 4222.48801 3233.60472 0.4 0.4 0 0 1 4222.47406 3233.5 0.4 0.4 0 0 1 4222.48801 3233.39528 5.916 5.916 0 0 0 4222.69435 3231.84645 L 4222.69435 3231.84645 4222.69435 3225.15355 4222.69435 3225.15355 A 5.916 5.916 0 0 0 4222.12983 3222.6315 0.4 0.4 0 0 1 4222.09166 3222.46098 0.4 0.4 0 0 1 4222.12682 3222.29701 L 4222.12682 3222.29701 A 9.26245 9.26245 0 0 0 4222.94085 3218.5 9.26245 9.26245 0 0 0 4222.12682 3214.70299 L 4222.12682 3214.70299 A 0.4 0.4 0 0 1 4222.09166 3214.53902 0.4 0.4 0 0 1 4222.12983 3214.3685 L 4222.12983 3214.3685 A 5.916 5.916 0 0 0 4222.69435 3211.84645 L 4222.69435 3211.84645 4222.69435 3210.42322 4218.31599 3210.42322 A 0.4 0.4 0 0 1 4218.124 3210.37414 9.26245 9.26245 0 0 0 4213.6784 3209.23755 9.26245 9.26245 0 0 0 4211.06136 3209.61495 0.4 0.4 0 0 1 4210.94834 3209.63125 L 4204.26235 3209.63125 4162.34 3209.63125 A 8.86875 8.86875 0 0 0 4159.99188 3209.94775 L 4159.99188 3209.94775 A 0.4 0.4 0 0 1 4159.88597 3209.96202 0.4 0.4 0 0 1 4159.48597 3209.56202 0.4 0.4 0 0 1 4159.60313 3209.27918 L 4161.3964 3207.48591 A 0.4 0.4 0 0 1 4161.67924 3207.36875 L 4204.26235 3207.36875 4210.94834 3207.36875 A 0.4 0.4 0 0 1 4211.06136 3207.38505 9.26245 9.26245 0 0 0 4213.6784 3207.76245 9.26245 9.26245 0 0 0 4218.124 3206.62586 L 4218.124 3206.62586 A 0.4 0.4 0 0 1 4218.31599 3206.57677 L 4222.69435 3206.57677 4222.69435 3205.15355 4222.69435 3205.15355 A 5.916 5.916 0 0 0 4222.12983 3202.6315 0.4 0.4 0 0 1 4222.09166 3202.46098 0.4 0.4 0 0 1 4222.12682 3202.29701 L 4222.12682 3202.29701 A 9.26245 9.26245 0 0 0 4222.94085 3198.5 9.26245 9.26245 0 0 0 4222.12682 3194.70299 L 4222.12682 3194.70299 A 0.4 0.4 0 0 1 4222.09166 3194.53902 0.4 0.4 0 0 1 4222.12983 3194.3685 L 4222.12983 3194.3685 A 5.916 5.916 0 0 0 4222.69435 3191.84645 L 4222.69435 3191.84645 4222.69435 3190.42322 4218.31599 3190.42322 A 0.4 0.4 0 0 1 4218.124 3190.37414 9.26245 9.26245 0 0 0 4213.6784 3189.23755 9.26245 9.26245 0 0 0 4211.06136 3189.61495 0.4 0.4 0 0 1 4210.94834 3189.63125 L 4204.26235 3189.63125 4201.28114 3189.63125 A 0.4 0.4 0 0 1 4200.88114 3189.23125 0.4 0.4 0 0 1 4201.09945 3188.8749 8.2782 8.2782 0 0 0 4203.94324 3186.49151 0.4 0.4 0 0 1 4204.26235 3186.3327 0.4 0.4 0 0 1 4204.63071 3186.57677 L 4209.04081 3186.57677 A 0.4 0.4 0 0 1 4209.2328 3186.62586 9.26245 9.26245 0 0 0 4213.6784 3187.76245 9.26245 9.26245 0 0 0 4217.75125 3186.81895 L 4217.75125 3186.81895 A 0.4 0.4 0 0 1 4217.92714 3186.7782 L 4221.92446 3186.7782 A 0.4 0.4 0 0 1 4222.06495 3186.80369 8.86875 8.86875 0 0 0 4223.18436 3187.1413 8.86875 8.86875 0 0 0 4225.18 3187.36875 L 4228.6618 3187.36875 A 0.4 0.4 0 0 1 4229.0618 3187.76875 L 4229.0618 3249.23125 A 0.4 0.4 0 0 1 4228.6618 3249.63125 L 4223.31314 3249.63125 4222.3394 3249.63125 A 8.86875 8.86875 0 0 0 4218.75232 3250.38905 L 4218.75232 3250.38905 A 0.4 0.4 0 0 1 4218.59053 3250.42323 L 4215.60162 3250.42323 4215.60162 3252.58714 A 0.4 0.4 0 0 1 4215.50966 3252.84232 8.86875 8.86875 0 0 0 4213.74579 3256.30806 L 4213.74579 3256.30806 A 0.4 0.4 0 0 1 4213.3582 3256.6092 Z " stroke-width="0" layerid="2" attachedcopperid="gge3746" c_shapetype="line" id="gge3746_11" class=""></path><path d="M 4223.0944 3169.86894 A 0.4 0.4 0 0 1 4222.6944 3169.46894 L 4222.6944 3165.4 4222.6944 3165.4 A 5.916 5.916 0 0 0 4222.52447 3163.99228 L 4222.52447 3163.99228 A 0.4 0.4 0 0 1 4222.51299 3163.8971 0.4 0.4 0 0 1 4222.53465 3163.76723 L 4222.53465 3163.76723 A 5.916 5.916 0 0 0 4222.85515 3161.84645 L 4222.85515 3160.42323 4220.09233 3160.42323 A 0.4 0.4 0 0 1 4219.88246 3160.36374 L 4219.88246 3160.36374 A 5.916 5.916 0 0 0 4216.7784 3159.484 L 4216.7784 3159.484 4210.5784 3159.484 4210.5784 3159.484 A 5.916 5.916 0 0 0 4208.31354 3159.93471 L 4208.31354 3159.93471 A 0.4 0.4 0 0 1 4208.1604 3159.96518 0.4 0.4 0 0 1 4207.7604 3159.56518 0.4 0.4 0 0 1 4207.87756 3159.28234 L 4207.87756 3159.28234 4209.47714 3157.68276 4209.47714 3157.68276 A 0.4 0.4 0 0 1 4209.75998 3157.5656 L 4211.89875 3157.5656 A 0.4 0.4 0 0 1 4211.97908 3157.57375 9.26245 9.26245 0 0 0 4213.8392 3157.76245 9.26245 9.26245 0 0 0 4218.2848 3156.62586 L 4218.2848 3156.62586 A 0.4 0.4 0 0 1 4218.47679 3156.57678 L 4222.85515 3156.57678 4222.85515 3155.15355 A 5.916 5.916 0 0 0 4222.29063 3152.6315 L 4222.29063 3152.6315 A 0.4 0.4 0 0 1 4222.25246 3152.46098 0.4 0.4 0 0 1 4222.28762 3152.29701 L 4222.28762 3152.29701 A 9.26245 9.26245 0 0 0 4223.10165 3148.5 9.26245 9.26245 0 0 0 4217.6414 3140.05392 L 4217.6414 3140.05392 A 0.4 0.4 0 0 1 4217.4056 3139.68918 L 4217.4056 3088.61941 A 0.4 0.4 0 0 1 4217.53812 3088.32199 L 4217.53812 3088.32199 A 9.853 9.853 0 0 0 4220.8025 3080.9959 9.853 9.853 0 0 0 4210.9495 3071.1429 9.853 9.853 0 0 0 4206.82267 3072.04878 L 4206.82267 3072.04878 A 0.4 0.4 0 0 1 4206.72634 3072.07917 L 4206.72634 3072.07917 A 9.0656 9.0656 0 0 0 4200.58194 3076.30984 L 4200.58194 3076.30984 A 0.4 0.4 0 0 1 4200.23963 3076.50289 0.4 0.4 0 0 1 4199.88812 3076.29378 L 4199.88812 3076.29378 A 9.853 9.853 0 0 0 4193.448 3071.39591 L 4193.448 3078.7774 4199.05153 3078.7774 A 0.4 0.4 0 0 1 4199.45153 3079.1774 0.4 0.4 0 0 1 4199.44404 3079.25442 9.0656 9.0656 0 0 0 4199.2744 3081 L 4199.2744 3081 4199.2744 3082.8144 A 0.4 0.4 0 0 1 4198.8744 3083.2144 L 4193.448 3083.2144 4193.448 3090.59589 A 9.853 9.853 0 0 0 4198.57615 3087.56159 L 4198.57615 3087.56159 A 0.4 0.4 0 0 1 4198.8744 3087.42814 0.4 0.4 0 0 1 4199.2744 3087.82814 L 4199.2744 3111.084 A 0.4 0.4 0 0 1 4198.8744 3111.484 L 4193.2392 3111.484 4193.2392 3111.484 A 5.916 5.916 0 0 0 4187.3232 3117.4 L 4187.3232 3123.6 A 5.916 5.916 0 0 0 4187.6807 3125.62536 L 4187.6807 3125.62536 A 0.4 0.4 0 0 1 4187.70487 3125.7623 0.4 0.4 0 0 1 4187.58771 3126.04515 L 4182.95765 3130.6752 A 0.4 0.4 0 0 1 4182.67481 3130.79236 0.4 0.4 0 0 1 4182.27481 3130.39236 0.4 0.4 0 0 1 4182.28201 3130.31679 L 4182.28201 3130.31679 A 9.616 9.616 0 0 0 4182.4552 3128.5 9.616 9.616 0 0 0 4181.7376 3124.85501 L 4181.7376 3124.85501 A 0.4 0.4 0 0 1 4181.70775 3124.70339 L 4181.70775 3112 4181.70775 3112 A 8.86875 8.86875 0 0 0 4178.44508 3105.12784 0.4 0.4 0 0 1 4178.29793 3104.81789 0.4 0.4 0 0 1 4178.38183 3104.57278 8.2782 8.2782 0 0 0 4180.1182 3099.5 L 4180.1182 3099.5 4180.1182 3085.77949 A 0.4 0.4 0 0 1 4180.1644 3085.59286 L 4180.1644 3085.59286 A 9.853 9.853 0 0 0 4180.95366 3083.59446 L 4180.95366 3083.59446 A 0.4 0.4 0 0 1 4181.3395 3083.29995 0.4 0.4 0 0 1 4181.72534 3083.59446 9.853 9.853 0 0 0 4189.011 3090.59589 L 4189.011 3083.2144 4181.53994 3083.2144 A 0.4 0.4 0 0 1 4181.13994 3082.8144 0.4 0.4 0 0 1 4181.14629 3082.74345 L 4181.14629 3082.74345 A 9.853 9.853 0 0 0 4181.3025 3080.9959 9.853 9.853 0 0 0 4181.14629 3079.24835 L 4181.14629 3079.24835 A 0.4 0.4 0 0 1 4181.13994 3079.1774 0.4 0.4 0 0 1 4181.53994 3078.7774 L 4189.011 3078.7774 4189.011 3071.39591 A 9.853 9.853 0 0 0 4181.72534 3078.39734 L 4181.72534 3078.39734 A 0.4 0.4 0 0 1 4181.3395 3078.69185 0.4 0.4 0 0 1 4180.95366 3078.39734 9.853 9.853 0 0 0 4171.4495 3071.1429 9.853 9.853 0 0 0 4161.97417 3078.29411 L 4161.97417 3078.29411 A 0.4 0.4 0 0 1 4161.5895 3078.58442 0.4 0.4 0 0 1 4161.20483 3078.29411 9.853 9.853 0 0 0 4155.02362 3071.70987 L 4155.02362 3071.70987 A 0.4 0.4 0 0 1 4154.87529 3071.6165 L 4152.70876 3069.46182 A 0.4 0.4 0 0 1 4152.59083 3069.1782 0.4 0.4 0 0 1 4152.99083 3068.7782 L 4255.0018 3068.7782 A 0.4 0.4 0 0 1 4255.4018 3069.1782 L 4255.4018 3089.43501 A 0.4 0.4 0 0 1 4255.35499 3089.62279 5.916 5.916 0 0 0 4254.69128 3091.81813 0.4 0.4 0 0 1 4254.57607 3092.06163 L 4246.13332 3100.50437 A 0.4 0.4 0 0 1 4245.85048 3100.62153 0.4 0.4 0 0 1 4245.45048 3100.22153 0.4 0.4 0 0 1 4245.49483 3100.03845 9.916 9.916 0 0 0 4246.5944 3095.5 9.916 9.916 0 0 0 4236.6784 3085.584 9.916 9.916 0 0 0 4226.7624 3095.5 9.916 9.916 0 0 0 4236.6784 3105.416 9.916 9.916 0 0 0 4241.21685 3104.31643 0.4 0.4 0 0 1 4241.39993 3104.27208 0.4 0.4 0 0 1 4241.79993 3104.67208 0.4 0.4 0 0 1 4241.68277 3104.95492 L 4230.06885 3116.56885 4230.06885 3116.56885 A 8.86875 8.86875 0 0 0 4227.47125 3122.84 L 4227.47125 3122.84 4227.47125 3169.23125 A 0.4 0.4 0 0 1 4227.07125 3169.63125 L 4225.18 3169.63125 A 8.86875 8.86875 0 0 0 4223.18441 3169.85868 0.4 0.4 0 0 1 4223.0944 3169.86894 Z " stroke-width="0" layerid="2" attachedcopperid="gge3746" c_shapetype="line" id="gge3746_12" class=""></path><path d="M 4131.93318 3141.69823 A 0.4 0.4 0 0 1 4131.58319 3141.4919 L 4131.58319 3141.4919 A 8.2782 8.2782 0 0 0 4127.01585 3137.6662 0.4 0.4 0 0 1 4126.74514 3137.28767 0.4 0.4 0 0 1 4126.95321 3136.93673 L 4126.95321 3136.93673 A 9.616 9.616 0 0 0 4131.9552 3128.5 9.616 9.616 0 0 0 4128.49949 3121.11635 0.4 0.4 0 0 1 4128.35574 3120.80921 0.4 0.4 0 0 1 4128.44057 3120.5629 L 4128.44057 3120.5629 A 5.916 5.916 0 0 0 4129.6952 3116.92 L 4129.6952 3107.08 A 5.916 5.916 0 0 0 4125.12576 3101.31929 0.4 0.4 0 0 1 4124.81681 3100.92979 0.4 0.4 0 0 1 4124.93396 3100.64694 L 4135.21033 3090.37058 A 0.4 0.4 0 0 1 4135.35839 3090.27681 L 4135.35839 3090.27681 A 9.853 9.853 0 0 0 4141.40579 3084.0551 L 4141.40579 3084.0551 A 0.4 0.4 0 0 1 4141.78607 3083.77913 0.4 0.4 0 0 1 4142.06814 3083.89551 L 4142.36758 3084.19332 A 0.4 0.4 0 0 1 4142.46176 3084.34113 L 4142.46176 3084.34113 A 9.853 9.853 0 0 0 4150.47365 3090.76854 L 4150.47365 3090.76854 A 0.4 0.4 0 0 1 4150.82266 3091.16528 0.4 0.4 0 0 1 4150.53408 3091.54944 L 4150.53408 3091.54944 A 8.2782 8.2782 0 0 0 4144.5618 3099.5 L 4144.5618 3099.5 4144.5618 3100.84822 4144.5618 3105.55408 A 0.4 0.4 0 0 1 4144.50033 3105.76715 L 4144.50033 3105.76715 A 9.853 9.853 0 0 0 4142.98615 3111.01555 L 4142.98615 3112.98405 A 9.853 9.853 0 0 0 4144.58554 3118.36546 L 4144.58554 3118.36546 A 0.4 0.4 0 0 1 4144.65047 3118.58392 0.4 0.4 0 0 1 4144.25047 3118.98392 0.4 0.4 0 0 1 4144.19411 3118.97993 L 4144.19411 3118.97993 A 9.616 9.616 0 0 0 4142.8392 3118.884 9.616 9.616 0 0 0 4141.09328 3119.04383 0.4 0.4 0 0 1 4141.02065 3119.05048 0.4 0.4 0 0 1 4140.62065 3118.65048 L 4140.62065 3114.71042 4133.13857 3114.71042 A 9.853 9.853 0 0 0 4136.57342 3120.58814 0.4 0.4 0 0 1 4136.71905 3120.89685 0.4 0.4 0 0 1 4136.57944 3121.20049 L 4136.57944 3121.20049 A 9.616 9.616 0 0 0 4133.2232 3128.5 9.616 9.616 0 0 0 4133.94042 3132.14405 L 4133.94042 3132.14405 A 0.4 0.4 0 0 1 4133.97025 3132.29563 L 4133.97025 3139.66116 A 0.4 0.4 0 0 1 4133.85309 3139.944 L 4132.21602 3141.58108 A 0.4 0.4 0 0 1 4131.93318 3141.69823 Z M 4140.62065 3101.41556 A 9.853 9.853 0 0 0 4133.13857 3109.28917 L 4140.62065 3109.28917 4140.62065 3101.41556 Z " stroke-width="0" layerid="2" attachedcopperid="gge3746" c_shapetype="line" id="gge3746_13" class=""></path><path d="M 4117.16534 3136.8218 A 0.4 0.4 0 0 1 4116.76534 3137.2218 L 4101.0182 3137.2218 A 0.4 0.4 0 0 1 4100.6182 3136.8218 L 4100.6182 3133.49952 A 0.4 0.4 0 0 1 4100.67159 3133.29986 9.616 9.616 0 0 0 4101.9552 3128.5 9.616 9.616 0 0 0 4100.492 3123.40105 9.616 9.616 0 0 0 4097.79376 3120.5807 L 4097.79376 3120.5807 A 0.4 0.4 0 0 1 4097.62065 3120.25128 L 4097.62065 3114.71042 4090.13857 3114.71042 A 9.853 9.853 0 0 0 4091.56193 3118.32907 0.4 0.4 0 0 1 4091.6259 3118.54606 0.4 0.4 0 0 1 4091.27036 3118.94359 L 4091.27036 3118.94359 A 9.616 9.616 0 0 0 4085.31057 3121.93754 L 4085.31057 3121.93754 A 0.4 0.4 0 0 1 4085.0182 3122.06456 0.4 0.4 0 0 1 4084.6182 3121.66456 L 4084.6182 3109.5 4084.6182 3109.5 A 8.2782 8.2782 0 0 0 4082.19357 3103.64643 L 4069.67621 3091.12907 A 0.4 0.4 0 0 1 4069.55905 3090.84622 0.4 0.4 0 0 1 4069.95905 3090.44622 0.4 0.4 0 0 1 4070.0706 3090.46209 9.853 9.853 0 0 0 4070.5999 3090.59999 L 4070.5999 3083.2185 4069.0182 3083.2185 A 0.4 0.4 0 0 1 4068.6182 3082.8185 L 4068.6182 3079.1815 A 0.4 0.4 0 0 1 4069.0182 3078.7815 L 4070.5999 3078.7815 4070.5999 3071.40001 A 9.853 9.853 0 0 0 4069.16646 3071.84877 0.4 0.4 0 0 1 4069.0182 3071.87726 0.4 0.4 0 0 1 4068.6182 3071.47726 L 4068.6182 3069.1782 A 0.4 0.4 0 0 1 4069.0182 3068.7782 L 4111.03201 3068.7782 A 0.4 0.4 0 0 1 4111.43201 3069.1782 0.4 0.4 0 0 1 4111.31485 3069.46104 L 4109.14647 3071.62942 A 0.4 0.4 0 0 1 4108.99841 3071.72319 L 4108.99841 3071.72319 A 9.853 9.853 0 0 0 4108.106 3072.09285 0.4 0.4 0 0 1 4107.93499 3072.13125 L 4096.92181 3072.13125 A 0.4 0.4 0 0 1 4096.7508 3072.09285 9.853 9.853 0 0 0 4092.5384 3071.147 9.853 9.853 0 0 0 4083.06307 3078.29821 L 4083.06307 3078.29821 A 0.4 0.4 0 0 1 4082.6784 3078.58852 0.4 0.4 0 0 1 4082.29373 3078.29821 L 4082.29373 3078.29821 A 9.853 9.853 0 0 0 4075.0369 3071.40001 L 4075.0369 3078.7815 4082.44796 3078.7815 A 0.4 0.4 0 0 1 4082.84796 3079.1815 0.4 0.4 0 0 1 4082.84161 3079.25245 L 4082.84161 3079.25245 A 9.853 9.853 0 0 0 4082.6854 3081 9.853 9.853 0 0 0 4082.84161 3082.74755 0.4 0.4 0 0 1 4082.84796 3082.8185 0.4 0.4 0 0 1 4082.44796 3083.2185 L 4075.0369 3083.2185 4075.0369 3090.59999 A 9.853 9.853 0 0 0 4082.29373 3083.70179 0.4 0.4 0 0 1 4082.6784 3083.41148 0.4 0.4 0 0 1 4083.06307 3083.70179 9.853 9.853 0 0 0 4092.5384 3090.853 9.853 9.853 0 0 0 4096.7508 3089.90715 L 4096.7508 3089.90715 A 0.4 0.4 0 0 1 4096.92181 3089.86875 L 4107.93499 3089.86875 A 0.4 0.4 0 0 1 4108.106 3089.90715 9.853 9.853 0 0 0 4109.29498 3090.37766 L 4109.29498 3090.37766 A 0.4 0.4 0 0 1 4109.57224 3090.75837 0.4 0.4 0 0 1 4109.45509 3091.04121 L 4103.56785 3096.92845 4103.56785 3096.92845 A 8.86875 8.86875 0 0 0 4101.2686 3100.91861 8.86875 8.86875 0 0 0 4100.97025 3103.1996 L 4100.97025 3103.1996 4100.97025 3106.63246 A 0.4 0.4 0 0 1 4100.93186 3106.80345 9.853 9.853 0 0 0 4099.98615 3111.01555 L 4099.98615 3112.98405 A 9.853 9.853 0 0 0 4101.97683 3118.92254 L 4101.97683 3118.92254 A 0.4 0.4 0 0 1 4102.05765 3119.16362 L 4102.05765 3122.58404 A 9.853 9.853 0 0 0 4104.64409 3121.58604 L 4104.64409 3121.58604 A 0.4 0.4 0 0 1 4104.83915 3121.53525 0.4 0.4 0 0 1 4105.03421 3121.58604 L 4105.03421 3121.58604 A 9.853 9.853 0 0 0 4109.83915 3122.83705 9.853 9.853 0 0 0 4111.10914 3122.75486 L 4111.10914 3122.75486 A 0.4 0.4 0 0 1 4111.1607 3122.75152 0.4 0.4 0 0 1 4111.5607 3123.15152 L 4111.5607 3125.9999 4111.5607 3125.9999 A 8.2782 8.2782 0 0 0 4112.9154 3130.53793 0.4 0.4 0 0 1 4112.97057 3130.66706 L 4112.97057 3130.66706 A 9.616 9.616 0 0 0 4116.98794 3136.48946 L 4116.98794 3136.48946 A 0.4 0.4 0 0 1 4117.16534 3136.8218 Z M 4097.62065 3109.28917 L 4097.62065 3101.41556 A 9.853 9.853 0 0 0 4090.13857 3109.28917 L 4097.62065 3109.28917 Z " stroke-width="0" layerid="2" attachedcopperid="gge3746" c_shapetype="line" id="gge3746_14" class=""></path><path d="M 4163.5618 3090.8218 A 0.4 0.4 0 0 1 4163.1618 3091.2218 L 4154.65793 3091.2218 A 0.4 0.4 0 0 1 4154.25793 3090.8218 0.4 0.4 0 0 1 4154.54368 3090.43846 9.853 9.853 0 0 0 4161.20483 3083.69769 L 4161.20483 3083.69769 A 0.4 0.4 0 0 1 4161.5895 3083.40738 0.4 0.4 0 0 1 4161.97417 3083.69769 9.853 9.853 0 0 0 4163.48513 3086.7968 L 4163.48513 3086.7968 A 0.4 0.4 0 0 1 4163.5618 3087.03229 L 4163.5618 3090.8218 Z " stroke-width="0" layerid="2" attachedcopperid="gge3746" c_shapetype="line" id="gge3746_15" class=""></path><polyline points="4207.2 3301 4237.34 3301 4237.34 3178.5 4213.68 3178.5" stroke-width="4.7244"  stroke-linecap="round" fill="none" layerid="2" net="U1_16" id="gge3569" locked="0" /><polyline points="4180.84 3144.5 4196.339 3129.001 4196.339 3120.5" stroke-width="4.7244"  stroke-linecap="round" fill="none" layerid="2" net="U1_10" id="gge3745" locked="0" /><polyline points="4144.68 3164.5 4144.84 3164.34 4144.84 3156 4156.34 3144.5 4180.84 3144.5" stroke-width="4.7244"  stroke-linecap="round" fill="none" layerid="2" net="U1_10" id="gge3741" locked="0" /><polyline points="4127.84 3136.5 4132.34 3136.5 4132.34 3112 4142.84 3112" stroke-width="4.7244"  stroke-linecap="round" fill="none" layerid="2" net="GND" id="gge3727" locked="0" /><polyline points="4248.3392 3130.5 4273.6784 3105.1608 4273.6784 3095.5" stroke-width="5.9055"  stroke-linecap="round" fill="none" layerid="2" net="U1_5" id="gge3738" locked="0" /><polyline points="4248.3392 3269.5 4248.3392 3130.5" stroke-width="5.9055"  stroke-linecap="round" fill="none" layerid="2" net="U1_5" id="gge3734" locked="0" /><polyline points="4283.68 3095.5 4283.84 3095.66 4283.84 3114 4260.84 3137 4260.84 3258.5 4257.84 3258.5" stroke-width="5.9055"  stroke-linecap="round" fill="none" layerid="2" net="U1_6" id="gge3661" locked="0" /><polyline points="4222.8392 3270 4227.8392 3270" stroke-width="5.9055"  stroke-linecap="round" fill="none" layerid="2" net="U1_5" id="gge3678" locked="0" /><polyline points="4228.839 3258.5 4222.3394 3258.5" stroke-width="5.9055"  stroke-linecap="round" fill="none" layerid="2" net="U1_6" id="gge3666" locked="0" /><polyline points="4154.68 3254.5 4154.68 3245.66 4171.84 3228.5 4213.68 3228.5" stroke-width="5.9055"  stroke-linecap="round" fill="none" layerid="2" net="U1_8" id="gge3608" locked="0" /><polyline points="4144.68 3254.5 4144.84 3254.34 4144.84 3236 4162.34 3218.5 4213.68 3218.5" stroke-width="5.9055"  stroke-linecap="round" fill="none" layerid="2" net="U1_7" id="gge3609" locked="0" /><polyline points="4104.68 3254.5 4104.84 3254.34 4104.84 3242 4114.34 3242 4157.84 3198.5 4213.68 3198.5" stroke-width="5.9055"  stroke-linecap="round" fill="none" layerid="2" net="U1_3" id="gge3614" locked="0" /><polyline points="4049.1783 3197 4046.6783 3194.5 4046.6783 3124.5 4056.5384 3114.6399 4056.6783 3114.6399" stroke-width="5.9055"  stroke-linecap="round" fill="none" layerid="2" net="U1_11" id="gge3552" locked="0" /><polyline points="4134.68 3164.5 4135.18 3165 4135.18 3196.5 4073.68 3196.5" stroke-width="5.9055"  stroke-linecap="round" fill="none" layerid="2" net="U1_11" id="gge3551" locked="0" /><polyline points="4197.3392 3157 4205.8392 3148.5 4213.8392 3148.5" stroke-width="6.2992"  stroke-linecap="round" fill="none" layerid="2" net="U1_14" id="gge3645" locked="0" /><polyline points="4213.84 3148.5 4208.34 3148.5 4208.34 3081 4210.95 3081" stroke-width="6.2992"  stroke-linecap="round" fill="none" layerid="2" net="U1_14" id="gge3560" locked="0" /><polyline points="4128.1996 3301 4147.98 3301" stroke-width="5.9055"  stroke-linecap="round" fill="none" layerid="2" net="GND" id="gge3621" locked="0" /><polyline points="4213.68 3248.5 4225.3392 3248.5 4225.34 3208.5 4225.18 3208.5" stroke-width="5.9055"  stroke-linecap="round" fill="none" layerid="2" net="GND" id="gge3637" locked="0" /><polyline points="4213.6786 3208.5002 4225.1786 3208.5 4225.6786 3208 4225.6786 3189 4225.1786 3188.5002 4213.6786 3188.5002" stroke-width="5.9055"  stroke-linecap="round" fill="none" layerid="2" net="GND" id="gge3564" locked="0" /><polyline points="4132.3394 3154 4142.839 3143.5004 4142.839 3128.5" stroke-width="5.9055"  stroke-linecap="round" fill="none" layerid="2" net="U1_13" id="gge3716" locked="0" /><polyline points="4172.839 3128.5 4172.839 3112 4162.8389 3112" stroke-width="5.9055"  stroke-linecap="round" fill="none" layerid="2" net="R3_2" id="gge3726" locked="0" /><polyline points="4142.84 3112 4142.84 3090.5 4161.34 3090.5 4161.34 3071.5 4192.34 3071.5" stroke-width="4.7244"  stroke-linecap="round" fill="none" layerid="2" net="GND" id="gge3722" locked="0" /><polyline points="4191.23 3081 4191.23 3071.5 4223.34 3071.5 4223.34 3158.5 4213.84 3158.5" stroke-width="4.7244"  stroke-linecap="round" fill="none" layerid="2" net="GND" id="gge3690" locked="0" /><polyline points="4132.0386 3081 4109.839 3103.1996 4109.839 3112" stroke-width="5.9055"  stroke-linecap="round" fill="none" layerid="2" net="P3-LI1_2" id="gge3558" locked="0" /><polyline points="4112.3182 3081 4122.3182 3071 4141.6786 3071 4151.7293 3080.9958" stroke-width="5.9055"  stroke-linecap="round" fill="none" layerid="2" net="P1-12V_2" id="gge3559" locked="0" /><polyline points="4092.5387 3081 4112.3182 3081" stroke-width="5.9055"  stroke-linecap="round" fill="none" layerid="2" net="P1-12V_2" id="gge3557" locked="0" /><polyline points="4072.8186 3081 4099.839 3108.0204 4099.839 3112" stroke-width="5.9055"  stroke-linecap="round" fill="none" layerid="2" net="GND" id="gge3688" locked="0" /><polyline points="4068.98 3301 4068.98 3254.5 4084.68 3254.5" stroke-width="5.9055"  stroke-linecap="round" fill="none" layerid="2" net="U1_1" id="gge3543" locked="0" /><polyline points="4088.7 3301 4094.68 3295.02 4094.68 3254.5" stroke-width="4.7244"  stroke-linecap="round" fill="none" layerid="2" net="GND" id="gge3544" locked="0" /><polyline points="4263.68 3095.5 4236.34 3122.84 4236.34 3178.5 4225.18 3178.5" stroke-width="5.9055"  stroke-linecap="round" fill="none" layerid="2" net="U1_16" id="gge3658" locked="0" /><polyline points="4293.68 3095.5 4293.68 3126.66 4274.84 3145.5 4274.84 3261 4254.34 3281.5 4248.34 3281.5" stroke-width="5.9055"  stroke-linecap="round" fill="none" layerid="2" net="GND" id="gge3691" locked="0" /><polyline points="4208.84 3312.5 4242.84 3312.5 4286.84 3268.5 4286.84 3153 4308.34 3131.5 4308.34 3096 4308.84 3095.5 4345.68 3095.5" stroke-width="5.9055"  stroke-linecap="round" fill="none" layerid="2" net="U1_1" id="gge3733" locked="0" /><polyline points="4068.98 3301 4085.98 3318 4203.34 3318 4208.84 3312.5" stroke-width="4.7244"  stroke-linecap="round" fill="none" layerid="2" net="U1_1" id="gge3729" locked="0" /><polyline points="4084.68 3164.5 4076.34 3156.16 4076.34 3109.5 4060.34 3093.5 4060.34 3060.5 4263.68 3060.5 4263.68 3095.5" stroke-width="4.7244"  stroke-linecap="round" fill="none" layerid="2" net="U1_16" id="gge3619" locked="0" /><polyline points="4152.84 3112 4152.84 3099.5 4171.84 3099.5 4171.84 3081 4171.45 3081" stroke-width="4.7244"  stroke-linecap="round" fill="none" layerid="2" net="Q3_2" id="gge3721" locked="0" /><polyline points="4099.84 3112 4099.84 3122 4100.34 3122 4107.84 3129.5 4107.84 3136.5 4127.84 3136.5" stroke-width="4.7244"  stroke-linecap="round" fill="none" layerid="2" net="GND" id="gge3707" locked="0" /><polyline points="4092.34 3128.5 4092.34 3145.5 4124.34 3145.5 4124.34 3164.5 4124.68 3164.5" stroke-width="4.7244"  stroke-linecap="round" fill="none" layerid="2" net="U1_12" id="gge3700" locked="0" /><polyline points="4114.6782 3164.5 4114.8392 3164.339 4114.8392 3154.5" stroke-width="4.7244"  stroke-linecap="round" fill="none" layerid="2" net="U1_13" id="gge3713" locked="0" /><polyline points="4228.3392 3280.5 4228.3392 3280.3746 4213.68 3280.3746" stroke-width="4.7244"  stroke-linecap="round" fill="none" layerid="2" net="GND" id="gge3694" locked="0" /><polyline points="4167.68 3274.5 4172.18 3270 4195.3392 3270" stroke-width="4.7244"  stroke-linecap="round" fill="none" layerid="2" net="U1_5" id="gge3675" locked="0" /><polyline points="4124.68 3254.5 4124.68 3268.5 4130.68 3274.5 4167.68 3274.5" stroke-width="4.7244"  stroke-linecap="round" fill="none" layerid="2" net="U1_5" id="gge3575" locked="0" /><polyline points="4167.7 3301 4187.2 3281.5 4204.68 3281.5 4204.68 3239 4205.18 3238.5 4213.68 3238.5" stroke-width="4.7244"  stroke-linecap="round" fill="none" layerid="2" net="U1_4" id="gge3574" locked="0" /><polyline points="4187.48 3301 4197.48 3291 4213.68 3291 4213.68 3248.5" stroke-width="4.7244"  stroke-linecap="round" fill="none" layerid="2" net="GND" id="gge3634" locked="0" /><polyline points="4147.98 3301 4156.98 3310 4177.34 3310 4186.34 3301 4187.48 3301" stroke-width="4.7244"  stroke-linecap="round" fill="none" layerid="2" net="GND" id="gge3622" locked="0" /><polyline points="4088.7 3301 4098.2 3310.5 4119.84 3310.5 4128.2 3302.14 4128.2 3301" stroke-width="4.7244"  stroke-linecap="round" fill="none" layerid="2" net="GND" id="gge3620" locked="0" /><polyline points="4145.8392 3181.5 4197.3392 3181.5" stroke-width="4.7244"  stroke-linecap="round" fill="none" layerid="2" net="U1_14" id="gge3641" locked="0" /><polyline points="4104.6782 3164.5 4104.8392 3164.661 4104.8392 3181 4105.3392 3181.5 4124.8392 3181.5" stroke-width="4.7244"  stroke-linecap="round" fill="none" layerid="2" net="U1_14" id="gge3638" locked="0" /><polyline points="4094.6782 3164.5 4094.8392 3164.661 4094.8392 3182 4064.3392 3182 4063.3392 3181 4063.3392 3146.5 4056.6782 3139.839 4056.6782 3134.36" stroke-width="4.7244"  stroke-linecap="round" fill="none" layerid="2" net="U1_15" id="gge3615" locked="0" /><polyline points="4134.68 3254.5 4135.68 3255.5 4135.68 3265 4162.68 3265 4169.18 3258.5 4195.68 3258.5" stroke-width="4.7244"  stroke-linecap="round" fill="none" layerid="2" net="U1_6" id="gge3571" locked="0" /><polyline points="4167.7 3301 4153.2 3286.5 4127.68 3286.5 4114.68 3273.5 4114.68 3254.5" stroke-width="4.7244"  stroke-linecap="round" fill="none" layerid="2" net="U1_4" id="gge3572" locked="0" /><polyline points="4122.339 3128.5 4119.8389 3125.9999 4119.8389 3112" stroke-width="4.7244"  stroke-linecap="round" fill="none" layerid="2" net="R2_2" id="gge3550" locked="0" /><polyline points="4154.6781 3164.5 4158.6781 3168.5 4213.6781 3168.5" stroke-width="4.7244"  stroke-linecap="round" fill="none" layerid="2" net="U1_9" id="gge3546" locked="0" /><polyline points="4108.48 3301 4104.6782 3297.1982 4104.6782 3254.5" stroke-width="4.7244"  stroke-linecap="round" fill="none" layerid="2" net="U1_3" id="gge3545" locked="0" /><g c_partid="part_pcbtext" c_etype="pinpart" c_origin="4380.3392,3164" c_rotation="90" c_mirror="1" id="gge3058" locked="0" layerid="2" c_shapetype="group" ><path c_fontsize="13.779527559055119" c_fontfamily="" c_text="2020" d="M 4369.5661 3164.6263 L 4368.9398 3164.6263 L 4367.6871 3165.2527 L 4367.0607 3165.879 L 4366.4344 3167.1317 L 4366.4344 3169.6371 L 4367.0607 3170.8898 L 4367.6871 3171.5161 L 4368.9398 3172.1424 L 4370.1925 3172.1424 L 4371.4451 3171.5161 L 4373.3242 3170.2634 L 4379.5876 3164 L 4379.5876 3172.7688 M 4366.4344 3180.6607 L 4367.0607 3178.7817 L 4368.9398 3177.529 L 4372.0715 3176.9026 L 4373.9505 3176.9026 L 4377.0822 3177.529 L 4378.9612 3178.7817 L 4379.5876 3180.6607 L 4379.5876 3181.9134 L 4378.9612 3183.7924 L 4377.0822 3185.0451 L 4373.9505 3185.6714 L 4372.0715 3185.6714 L 4368.9398 3185.0451 L 4367.0607 3183.7924 L 4366.4344 3181.9134 L 4366.4344 3180.6607 M 4369.5661 3190.4316 L 4368.9398 3190.4316 L 4367.6871 3191.058 L 4367.0607 3191.6843 L 4366.4344 3192.937 L 4366.4344 3195.4424 L 4367.0607 3196.6951 L 4367.6871 3197.3214 L 4368.9398 3197.9477 L 4370.1925 3197.9477 L 4371.4451 3197.3214 L 4373.3242 3196.0687 L 4379.5876 3189.8053 L 4379.5876 3198.5741 M 4366.4344 3206.466 L 4367.0607 3204.587 L 4368.9398 3203.3343 L 4372.0715 3202.7079 L 4373.9505 3202.7079 L 4377.0822 3203.3343 L 4378.9612 3204.587 L 4379.5876 3206.466 L 4379.5876 3207.7187 L 4378.9612 3209.5977 L 4377.0822 3210.8504 L 4373.9505 3211.4767 L 4372.0715 3211.4767 L 4368.9398 3210.8504 L 4367.0607 3209.5977 L 4366.4344 3207.7187 L 4366.4344 3206.466" fill="none"  stroke-width="5.9055"  /></g><g c_partid="part_pcbtext" c_etype="pinpart" c_origin="4355.3392,3113" c_rotation="90" c_mirror="1" id="gge2274" locked="0" layerid="2" c_shapetype="group" ><path c_fontsize="11.937" c_fontfamily="" c_text="Central DEV v1.3" d="M 4346.0066 3121.1389 L 4344.9215 3120.5963 L 4343.8363 3119.5111 L 4343.2937 3118.4259 L 4343.2937 3116.2555 L 4343.8363 3115.1704 L 4344.9215 3114.0852 L 4346.0066 3113.5426 L 4347.6344 3113 L 4350.3474 3113 L 4351.9751 3113.5426 L 4353.0603 3114.0852 L 4354.1455 3115.1704 L 4354.6881 3116.2555 L 4354.6881 3118.4259 L 4354.1455 3119.5111 L 4353.0603 3120.5963 L 4351.9751 3121.1389 M 4350.3474 3124.72 L 4350.3474 3131.2311 L 4349.2622 3131.2311 L 4348.177 3130.6885 L 4347.6344 3130.1459 L 4347.0918 3129.0607 L 4347.0918 3127.4329 L 4347.6344 3126.3477 L 4348.7196 3125.2626 L 4350.3474 3124.72 L 4351.4325 3124.72 L 4353.0603 3125.2626 L 4354.1455 3126.3477 L 4354.6881 3127.4329 L 4354.6881 3129.0607 L 4354.1455 3130.1459 L 4353.0603 3131.2311 M 4347.0918 3134.8122 L 4354.6881 3134.8122 M 4349.2622 3134.8122 L 4347.6344 3136.4399 L 4347.0918 3137.5251 L 4347.0918 3139.1529 L 4347.6344 3140.2381 L 4349.2622 3140.7807 L 4354.6881 3140.7807 M 4343.2937 3145.9895 L 4352.5177 3145.9895 L 4354.1455 3146.5321 L 4354.6881 3147.6173 L 4354.6881 3148.7025 M 4347.0918 3144.3618 L 4347.0918 3148.1599 M 4347.0918 3152.2836 L 4354.6881 3152.2836 M 4350.3474 3152.2836 L 4348.7196 3152.8262 L 4347.6344 3153.9114 L 4347.0918 3154.9965 L 4347.0918 3156.6243 M 4347.0918 3166.7165 L 4354.6881 3166.7165 M 4348.7196 3166.7165 L 4347.6344 3165.6313 L 4347.0918 3164.5461 L 4347.0918 3162.9184 L 4347.6344 3161.8332 L 4348.7196 3160.748 L 4350.3474 3160.2054 L 4351.4325 3160.2054 L 4353.0603 3160.748 L 4354.1455 3161.8332 L 4354.6881 3162.9184 L 4354.6881 3164.5461 L 4354.1455 3165.6313 L 4353.0603 3166.7165 M 4343.2937 3170.2976 L 4354.6881 3170.2976 M 4343.2937 3182.2346 L 4354.6881 3182.2346 M 4343.2937 3182.2346 L 4343.2937 3186.0327 L 4343.8363 3187.6605 L 4344.9215 3188.7457 L 4346.0066 3189.2883 L 4347.6344 3189.8309 L 4350.3474 3189.8309 L 4351.9751 3189.2883 L 4353.0603 3188.7457 L 4354.1455 3187.6605 L 4354.6881 3186.0327 L 4354.6881 3182.2346 M 4343.2937 3193.412 L 4354.6881 3193.412 M 4343.2937 3193.412 L 4343.2937 3200.4657 M 4348.7196 3193.412 L 4348.7196 3197.7527 M 4354.6881 3193.412 L 4354.6881 3200.4657 M 4343.2937 3204.0468 L 4354.6881 3208.3875 M 4343.2937 3212.7282 L 4354.6881 3208.3875 M 4347.0918 3224.6652 L 4354.6881 3227.9208 M 4347.0918 3231.1763 L 4354.6881 3227.9208 M 4345.464 3234.7574 L 4344.9215 3235.8426 L 4343.2937 3237.4704 L 4354.6881 3237.4704 M 4351.9751 3241.594 L 4352.5177 3241.0515 L 4353.0603 3241.594 L 4352.5177 3242.1366 L 4351.9751 3241.594 M 4343.2937 3246.8029 L 4343.2937 3252.7714 L 4347.6344 3249.5159 L 4347.6344 3251.1436 L 4348.177 3252.2288 L 4348.7196 3252.7714 L 4350.3474 3253.314 L 4351.4325 3253.314 L 4353.0603 3252.7714 L 4354.1455 3251.6862 L 4354.6881 3250.0585 L 4354.6881 3248.4307 L 4354.1455 3246.8029 L 4353.6029 3246.2603 L 4352.5177 3245.7177" fill="none"  stroke-width="1.9803"  /></g><g c_partid="part_pcbtext" c_etype="pinpart" c_origin="4327.8392,3165" c_rotation="90" c_mirror="1" id="gge2264" locked="0" layerid="2" c_shapetype="group" ><path c_fontsize="13.779527559055119" c_fontfamily="" c_text="Martin BartOS" d="M 4313.9344 3165 L 4327.0876 3165 M 4313.9344 3165 L 4327.0876 3170.0107 M 4313.9344 3175.0215 L 4327.0876 3170.0107 M 4313.9344 3175.0215 L 4327.0876 3175.0215 M 4318.3188 3186.6714 L 4327.0876 3186.6714 M 4320.1978 3186.6714 L 4318.9451 3185.4188 L 4318.3188 3184.1661 L 4318.3188 3182.287 L 4318.9451 3181.0344 L 4320.1978 3179.7817 L 4322.0769 3179.1553 L 4323.3295 3179.1553 L 4325.2086 3179.7817 L 4326.4612 3181.0344 L 4327.0876 3182.287 L 4327.0876 3184.1661 L 4326.4612 3185.4188 L 4325.2086 3186.6714 M 4318.3188 3190.8053 L 4327.0876 3190.8053 M 4322.0769 3190.8053 L 4320.1978 3191.4316 L 4318.9451 3192.6843 L 4318.3188 3193.937 L 4318.3188 3195.816 M 4313.9344 3201.8289 L 4324.5822 3201.8289 L 4326.4612 3202.4553 L 4327.0876 3203.7079 L 4327.0876 3204.9606 M 4318.3188 3199.9499 L 4318.3188 3204.3343 M 4313.9344 3209.0945 L 4314.5607 3209.7208 L 4313.9344 3210.3472 L 4313.3081 3209.7208 L 4313.9344 3209.0945 M 4318.3188 3209.7208 L 4327.0876 3209.7208 M 4318.3188 3214.481 L 4327.0876 3214.481 M 4320.8242 3214.481 L 4318.9451 3216.3601 L 4318.3188 3217.6127 L 4318.3188 3219.4918 L 4318.9451 3220.7445 L 4320.8242 3221.3708 L 4327.0876 3221.3708 M 4313.9344 3235.1503 L 4327.0876 3235.1503 M 4313.9344 3235.1503 L 4313.9344 3240.7874 L 4314.5607 3242.6664 L 4315.1871 3243.2928 L 4316.4398 3243.9191 L 4317.6925 3243.9191 L 4318.9451 3243.2928 L 4319.5715 3242.6664 L 4320.1978 3240.7874 M 4320.1978 3235.1503 L 4320.1978 3240.7874 L 4320.8242 3242.6664 L 4321.4505 3243.2928 L 4322.7032 3243.9191 L 4324.5822 3243.9191 L 4325.8349 3243.2928 L 4326.4612 3242.6664 L 4327.0876 3240.7874 L 4327.0876 3235.1503 M 4318.3188 3255.5691 L 4327.0876 3255.5691 M 4320.1978 3255.5691 L 4318.9451 3254.3164 L 4318.3188 3253.0637 L 4318.3188 3251.1847 L 4318.9451 3249.932 L 4320.1978 3248.6793 L 4322.0769 3248.053 L 4323.3295 3248.053 L 4325.2086 3248.6793 L 4326.4612 3249.932 L 4327.0876 3251.1847 L 4327.0876 3253.0637 L 4326.4612 3254.3164 L 4325.2086 3255.5691 M 4318.3188 3259.7029 L 4327.0876 3259.7029 M 4322.0769 3259.7029 L 4320.1978 3260.3293 L 4318.9451 3261.582 L 4318.3188 3262.8346 L 4318.3188 3264.7137 M 4313.9344 3270.7266 L 4324.5822 3270.7266 L 4326.4612 3271.3529 L 4327.0876 3272.6056 L 4327.0876 3273.8583 M 4318.3188 3268.8475 L 4318.3188 3273.2319 M 4313.9344 3281.7502 L 4314.5607 3280.4975 L 4315.8134 3279.2448 L 4317.0661 3278.6185 L 4318.9451 3277.9921 L 4322.0769 3277.9921 L 4323.9559 3278.6185 L 4325.2086 3279.2448 L 4326.4612 3280.4975 L 4327.0876 3281.7502 L 4327.0876 3284.2555 L 4326.4612 3285.5082 L 4325.2086 3286.7609 L 4323.9559 3287.3873 L 4322.0769 3288.0136 L 4318.9451 3288.0136 L 4317.0661 3287.3873 L 4315.8134 3286.7609 L 4314.5607 3285.5082 L 4313.9344 3284.2555 L 4313.9344 3281.7502 M 4315.8134 3300.9162 L 4314.5607 3299.6636 L 4313.9344 3297.7845 L 4313.9344 3295.2792 L 4314.5607 3293.4001 L 4315.8134 3292.1475 L 4317.0661 3292.1475 L 4318.3188 3292.7738 L 4318.9451 3293.4001 L 4319.5715 3294.6528 L 4320.8242 3298.4109 L 4321.4505 3299.6636 L 4322.0769 3300.2899 L 4323.3295 3300.9162 L 4325.2086 3300.9162 L 4326.4612 3299.6636 L 4327.0876 3297.7845 L 4327.0876 3295.2792 L 4326.4612 3293.4001 L 4325.2086 3292.1475" fill="none"  stroke-width="4.3307"  /></g><g c_partid="part_pad" c_etype="pinpart" c_origin="4191.2295,3080.9959" layerid="11" number="1" net="GND" plated ="Y"  id="gge2879" locked="0" c_rotation="0" c_width="7.874" c_height="7.874" title="GND" c_shape="ELLIPSE" pasteexpansion="0" solderexpansion="0.4"><ellipse c_etype="pad_shell" cx="4191.2295" cy="3080.9959" rx="3.937" ry="3.937" layerid="11" stroke-width="0"/><circle c_etype="pad_hole" cx="4191.2295" cy="3080.9959" r="2.5591" layerid="11" stroke-width="0"/></g><g c_partid="part_pad" c_etype="pinpart" c_origin="4210.9495,3080.9959" layerid="11" number="2" net="U1_14" plated ="Y"  id="gge2884" locked="0" c_rotation="0" c_width="7.874" c_height="7.874" title="U1_14" c_shape="ELLIPSE" pasteexpansion="0" solderexpansion="0.4"><ellipse c_etype="pad_shell" cx="4210.9495" cy="3080.9959" rx="3.937" ry="3.937" layerid="11" stroke-width="0"/><circle c_etype="pad_hole" cx="4210.9495" cy="3080.9959" r="2.5591" layerid="11" stroke-width="0"/></g><g c_partid="part_pad" c_etype="pinpart" c_origin="4213.8392,3158.5" layerid="11" number="1" net="GND" plated ="Y"  id="gge2899" locked="0" c_rotation="90" c_width="6.6929" c_height="6.2" title="GND" c_shape="RECT" pasteexpansion="0" solderexpansion="0.4"><polygon  c_etype="pad_shell" points="4210.7392 3161.8464 4210.7392 3155.1535 4216.9392 3155.1535 4216.9392 3161.8464" layerid="11" stroke-width="0" /><circle c_etype="pad_hole" cx="4213.8392" cy="3158.5" r="2.1654" layerid="11" stroke-width="0"/></g><g c_partid="part_pad" c_etype="pinpart" c_origin="4213.8392,3148.5" layerid="11" number="2" net="U1_14" plated ="Y"  id="gge2904" locked="0" c_rotation="90" c_width="6.6929" c_height="6.6929" title="U1_14" c_shape="ELLIPSE" pasteexpansion="0" solderexpansion="0.4"><ellipse c_etype="pad_shell" cx="4213.8392" cy="3148.5" rx="3.34645" ry="3.34645" layerid="11" stroke-width="0"/><circle c_etype="pad_hole" cx="4213.8392" cy="3148.5" r="2.1654" layerid="11" stroke-width="0"/></g><g c_partid="part_pad" c_etype="pinpart" c_origin="4112.3184,3081" layerid="11" number="1" net="P1-12V_2" plated ="Y"  id="gge2923" locked="0" c_rotation="0" c_width="7.874" c_height="7.874" title="P1-12V_2" c_shape="ELLIPSE" pasteexpansion="0" solderexpansion="0.4"><ellipse c_etype="pad_shell" cx="4112.3184" cy="3081" rx="3.937" ry="3.937" layerid="11" stroke-width="0"/><circle c_etype="pad_hole" cx="4112.3184" cy="3081" r="2.5591" layerid="11" stroke-width="0"/></g><g c_partid="part_pad" c_etype="pinpart" c_origin="4132.0384,3081" layerid="11" number="2" net="P3-LI1_2" plated ="Y"  id="gge2928" locked="0" c_rotation="0" c_width="7.874" c_height="7.874" title="P3-LI1_2" c_shape="ELLIPSE" pasteexpansion="0" solderexpansion="0.4"><ellipse c_etype="pad_shell" cx="4132.0384" cy="3081" rx="3.937" ry="3.937" layerid="11" stroke-width="0"/><circle c_etype="pad_hole" cx="4132.0384" cy="3081" r="2.5591" layerid="11" stroke-width="0"/></g><g c_partid="part_pad" c_etype="pinpart" c_origin="4151.7295,3080.9959" layerid="11" number="1" net="P1-12V_2" plated ="Y"  id="gge2947" locked="0" c_rotation="0" c_width="7.874" c_height="7.874" title="P1-12V_2" c_shape="ELLIPSE" pasteexpansion="0" solderexpansion="0.4"><ellipse c_etype="pad_shell" cx="4151.7295" cy="3080.9959" rx="3.937" ry="3.937" layerid="11" stroke-width="0"/><circle c_etype="pad_hole" cx="4151.7295" cy="3080.9959" r="2.5591" layerid="11" stroke-width="0"/></g><g c_partid="part_pad" c_etype="pinpart" c_origin="4171.4495,3080.9959" layerid="11" number="2" net="Q3_2" plated ="Y"  id="gge2952" locked="0" c_rotation="0" c_width="7.874" c_height="7.874" title="Q3_2" c_shape="ELLIPSE" pasteexpansion="0" solderexpansion="0.4"><ellipse c_etype="pad_shell" cx="4171.4495" cy="3080.9959" rx="3.937" ry="3.937" layerid="11" stroke-width="0"/><circle c_etype="pad_hole" cx="4171.4495" cy="3080.9959" r="2.5591" layerid="11" stroke-width="0"/></g><g c_partid="part_pad" c_etype="pinpart" c_origin="4084.6782,3164.5" layerid="11" number="16" net="U1_16" plated ="Y"  id="gge178" locked="0" c_rotation="0" c_width="6" c_height="6" title="U1_16" c_shape="ELLIPSE" pasteexpansion="0" solderexpansion="0.4"><ellipse c_etype="pad_shell" cx="4084.6782" cy="3164.5" rx="3" ry="3" layerid="11" stroke-width="0"/><circle c_etype="pad_hole" cx="4084.6784" cy="3164.5" r="1.8" layerid="11" stroke-width="0"/></g><g c_partid="part_pad" c_etype="pinpart" c_origin="4094.6782,3164.5" layerid="11" number="15" net="U1_15" plated ="Y"  id="gge183" locked="0" c_rotation="0" c_width="6" c_height="6" title="U1_15" c_shape="ELLIPSE" pasteexpansion="0" solderexpansion="0.4"><ellipse c_etype="pad_shell" cx="4094.6782" cy="3164.5" rx="3" ry="3" layerid="11" stroke-width="0"/><circle c_etype="pad_hole" cx="4094.6784" cy="3164.5" r="1.8" layerid="11" stroke-width="0"/></g><g c_partid="part_pad" c_etype="pinpart" c_origin="4104.6782,3164.5" layerid="11" number="14" net="U1_14" plated ="Y"  id="gge188" locked="0" c_rotation="0" c_width="6" c_height="6" title="U1_14" c_shape="ELLIPSE" pasteexpansion="0" solderexpansion="0.4"><ellipse c_etype="pad_shell" cx="4104.6782" cy="3164.5" rx="3" ry="3" layerid="11" stroke-width="0"/><circle c_etype="pad_hole" cx="4104.6784" cy="3164.5" r="1.8" layerid="11" stroke-width="0"/></g><g c_partid="part_pad" c_etype="pinpart" c_origin="4114.6782,3164.5" layerid="11" number="13" net="U1_13" plated ="Y"  id="gge193" locked="0" c_rotation="0" c_width="6" c_height="6" title="U1_13" c_shape="ELLIPSE" pasteexpansion="0" solderexpansion="0.4"><ellipse c_etype="pad_shell" cx="4114.6782" cy="3164.5" rx="3" ry="3" layerid="11" stroke-width="0"/><circle c_etype="pad_hole" cx="4114.6784" cy="3164.5" r="1.8" layerid="11" stroke-width="0"/></g><g c_partid="part_pad" c_etype="pinpart" c_origin="4124.6782,3164.5" layerid="11" number="12" net="U1_12" plated ="Y"  id="gge198" locked="0" c_rotation="0" c_width="6" c_height="6" title="U1_12" c_shape="ELLIPSE" pasteexpansion="0" solderexpansion="0.4"><ellipse c_etype="pad_shell" cx="4124.6782" cy="3164.5" rx="3" ry="3" layerid="11" stroke-width="0"/><circle c_etype="pad_hole" cx="4124.6784" cy="3164.5" r="1.8" layerid="11" stroke-width="0"/></g><g c_partid="part_pad" c_etype="pinpart" c_origin="4134.6782,3164.5" layerid="11" number="11" net="U1_11" plated ="Y"  id="gge203" locked="0" c_rotation="0" c_width="6" c_height="6" title="U1_11" c_shape="ELLIPSE" pasteexpansion="0" solderexpansion="0.4"><ellipse c_etype="pad_shell" cx="4134.6782" cy="3164.5" rx="3" ry="3" layerid="11" stroke-width="0"/><circle c_etype="pad_hole" cx="4134.6784" cy="3164.5" r="1.8" layerid="11" stroke-width="0"/></g><g c_partid="part_pad" c_etype="pinpart" c_origin="4144.6782,3164.5" layerid="11" number="10" net="U1_10" plated ="Y"  id="gge208" locked="0" c_rotation="0" c_width="6" c_height="6" title="U1_10" c_shape="ELLIPSE" pasteexpansion="0" solderexpansion="0.4"><ellipse c_etype="pad_shell" cx="4144.6782" cy="3164.5" rx="3" ry="3" layerid="11" stroke-width="0"/><circle c_etype="pad_hole" cx="4144.6784" cy="3164.5" r="1.8" layerid="11" stroke-width="0"/></g><g c_partid="part_pad" c_etype="pinpart" c_origin="4154.6782,3164.5" layerid="11" number="9" net="U1_9" plated ="Y"  id="gge213" locked="0" c_rotation="0" c_width="6" c_height="6" title="U1_9" c_shape="ELLIPSE" pasteexpansion="0" solderexpansion="0.4"><ellipse c_etype="pad_shell" cx="4154.6782" cy="3164.5" rx="3" ry="3" layerid="11" stroke-width="0"/><circle c_etype="pad_hole" cx="4154.6784" cy="3164.5" r="1.8" layerid="11" stroke-width="0"/></g><g c_partid="part_pad" c_etype="pinpart" c_origin="4084.6782,3254.5" layerid="11" number="1" net="U1_1" plated ="Y"  id="gge218" locked="0" c_rotation="0" c_width="6" c_height="6" title="U1_1" c_shape="ELLIPSE" pasteexpansion="0" solderexpansion="0.4"><ellipse c_etype="pad_shell" cx="4084.6782" cy="3254.5" rx="3" ry="3" layerid="11" stroke-width="0"/><circle c_etype="pad_hole" cx="4084.6784" cy="3254.5" r="1.8" layerid="11" stroke-width="0"/></g><g c_partid="part_pad" c_etype="pinpart" c_origin="4094.6782,3254.5" layerid="11" number="2" net="GND" plated ="Y"  id="gge223" locked="0" c_rotation="0" c_width="6" c_height="6" title="GND" c_shape="ELLIPSE" pasteexpansion="0" solderexpansion="0.4"><ellipse c_etype="pad_shell" cx="4094.6782" cy="3254.5" rx="3" ry="3" layerid="11" stroke-width="0"/><circle c_etype="pad_hole" cx="4094.6784" cy="3254.5" r="1.8" layerid="11" stroke-width="0"/></g><g c_partid="part_pad" c_etype="pinpart" c_origin="4104.6782,3254.5" layerid="11" number="3" net="U1_3" plated ="Y"  id="gge228" locked="0" c_rotation="0" c_width="6" c_height="6" title="U1_3" c_shape="ELLIPSE" pasteexpansion="0" solderexpansion="0.4"><ellipse c_etype="pad_shell" cx="4104.6782" cy="3254.5" rx="3" ry="3" layerid="11" stroke-width="0"/><circle c_etype="pad_hole" cx="4104.6784" cy="3254.5" r="1.8" layerid="11" stroke-width="0"/></g><g c_partid="part_pad" c_etype="pinpart" c_origin="4114.6782,3254.5" layerid="11" number="4" net="U1_4" plated ="Y"  id="gge233" locked="0" c_rotation="0" c_width="6" c_height="6" title="U1_4" c_shape="ELLIPSE" pasteexpansion="0" solderexpansion="0.4"><ellipse c_etype="pad_shell" cx="4114.6782" cy="3254.5" rx="3" ry="3" layerid="11" stroke-width="0"/><circle c_etype="pad_hole" cx="4114.6784" cy="3254.5" r="1.8" layerid="11" stroke-width="0"/></g><g c_partid="part_pad" c_etype="pinpart" c_origin="4124.6782,3254.5" layerid="11" number="5" net="U1_5" plated ="Y"  id="gge238" locked="0" c_rotation="0" c_width="6" c_height="6" title="U1_5" c_shape="ELLIPSE" pasteexpansion="0" solderexpansion="0.4"><ellipse c_etype="pad_shell" cx="4124.6782" cy="3254.5" rx="3" ry="3" layerid="11" stroke-width="0"/><circle c_etype="pad_hole" cx="4124.6784" cy="3254.5" r="1.8" layerid="11" stroke-width="0"/></g><g c_partid="part_pad" c_etype="pinpart" c_origin="4134.6782,3254.5" layerid="11" number="6" net="U1_6" plated ="Y"  id="gge243" locked="0" c_rotation="0" c_width="6" c_height="6" title="U1_6" c_shape="ELLIPSE" pasteexpansion="0" solderexpansion="0.4"><ellipse c_etype="pad_shell" cx="4134.6782" cy="3254.5" rx="3" ry="3" layerid="11" stroke-width="0"/><circle c_etype="pad_hole" cx="4134.6784" cy="3254.5" r="1.8" layerid="11" stroke-width="0"/></g><g c_partid="part_pad" c_etype="pinpart" c_origin="4144.6782,3254.5" layerid="11" number="7" net="U1_7" plated ="Y"  id="gge248" locked="0" c_rotation="0" c_width="6" c_height="6" title="U1_7" c_shape="ELLIPSE" pasteexpansion="0" solderexpansion="0.4"><ellipse c_etype="pad_shell" cx="4144.6782" cy="3254.5" rx="3" ry="3" layerid="11" stroke-width="0"/><circle c_etype="pad_hole" cx="4144.6784" cy="3254.5" r="1.8" layerid="11" stroke-width="0"/></g><g c_partid="part_pad" c_etype="pinpart" c_origin="4154.6782,3254.5" layerid="11" number="8" net="U1_8" plated ="Y"  id="gge253" locked="0" c_rotation="0" c_width="6" c_height="6" title="U1_8" c_shape="ELLIPSE" pasteexpansion="0" solderexpansion="0.4"><ellipse c_etype="pad_shell" cx="4154.6782" cy="3254.5" rx="3" ry="3" layerid="11" stroke-width="0"/><circle c_etype="pad_hole" cx="4154.6784" cy="3254.5" r="1.8" layerid="11" stroke-width="0"/></g><g c_partid="part_pad" c_etype="pinpart" c_origin="4142.839,3128.5" layerid="11" number="1" net="U1_13" plated ="Y"  id="gge336" locked="0" c_rotation="0" c_width="7.4" c_height="7.4" title="U1_13" c_shape="ELLIPSE" pasteexpansion="0" solderexpansion="0.4"><ellipse c_etype="pad_shell" cx="4142.839" cy="3128.5" rx="3.7" ry="3.7" layerid="11" stroke-width="0"/><circle c_etype="pad_hole" cx="4142.8392" cy="3128.5" r="1.77" layerid="11" stroke-width="0"/></g><g c_partid="part_pad" c_etype="pinpart" c_origin="4172.839,3128.5" layerid="11" number="2" net="R3_2" plated ="Y"  id="gge341" locked="0" c_rotation="0" c_width="7.4" c_height="7.4" title="R3_2" c_shape="ELLIPSE" pasteexpansion="0" solderexpansion="0.4"><ellipse c_etype="pad_shell" cx="4172.839" cy="3128.5" rx="3.7" ry="3.7" layerid="11" stroke-width="0"/><circle c_etype="pad_hole" cx="4172.8392" cy="3128.5" r="1.77" layerid="11" stroke-width="0"/></g><g c_partid="part_pad" c_etype="pinpart" c_origin="4109.839,3112" layerid="11" number="2" net="P3-LI1_2" plated ="Y"  id="gge503" locked="0" c_rotation="180" c_width="7.874" c_height="9.8425" title="P3-LI1_2" c_shape="OVAL" pasteexpansion="0" solderexpansion="0.4"><polyline  c_etype="pad_shell" points="4109.839 3112.9843 4109.839 3111.0158" layerid="11" stroke-width="7.874" /><circle c_etype="pad_hole" cx="4109.8392" cy="3112" r="2.7559" layerid="11" stroke-width="0"/></g><g c_partid="part_pad" c_etype="pinpart" c_origin="4099.839,3112" layerid="11" number="3" net="GND" plated ="Y"  id="gge508" locked="0" c_rotation="180" c_width="7.874" c_height="9.8425" title="GND" c_shape="OVAL" pasteexpansion="0" solderexpansion="0.4"><polyline  c_etype="pad_shell" points="4099.839 3112.9843 4099.839 3111.0158" layerid="11" stroke-width="7.874" /><circle c_etype="pad_hole" cx="4099.8392" cy="3112" r="2.7559" layerid="11" stroke-width="0"/></g><g c_partid="part_pad" c_etype="pinpart" c_origin="4119.839,3112" layerid="11" number="1" net="R2_2" plated ="Y"  id="gge513" locked="0" c_rotation="180" c_width="7.874" c_height="9.8425" title="R2_2" c_shape="RECT" pasteexpansion="0" solderexpansion="0.4"><polygon  c_etype="pad_shell" points="4123.7792 3116.92 4115.8992 3116.92 4115.8992 3107.08 4123.7792 3107.08" layerid="11" stroke-width="0" /><circle c_etype="pad_hole" cx="4119.8392" cy="3112" r="2.7559" layerid="11" stroke-width="0"/></g><g c_partid="part_pad" c_etype="pinpart" c_origin="4152.839,3112" layerid="11" number="2" net="Q3_2" plated ="Y"  id="gge529" locked="0" c_rotation="180" c_width="7.874" c_height="9.8425" title="Q3_2" c_shape="OVAL" pasteexpansion="0" solderexpansion="0.4"><polyline  c_etype="pad_shell" points="4152.839 3112.9843 4152.839 3111.0158" layerid="11" stroke-width="7.874" /><circle c_etype="pad_hole" cx="4152.8392" cy="3112" r="2.7559" layerid="11" stroke-width="0"/></g><g c_partid="part_pad" c_etype="pinpart" c_origin="4142.839,3112" layerid="11" number="3" net="GND" plated ="Y"  id="gge534" locked="0" c_rotation="180" c_width="7.874" c_height="9.8425" title="GND" c_shape="OVAL" pasteexpansion="0" solderexpansion="0.4"><polyline  c_etype="pad_shell" points="4142.839 3112.9843 4142.839 3111.0158" layerid="11" stroke-width="7.874" /><circle c_etype="pad_hole" cx="4142.8392" cy="3112" r="2.7559" layerid="11" stroke-width="0"/></g><g c_partid="part_pad" c_etype="pinpart" c_origin="4162.839,3112" layerid="11" number="1" net="R3_2" plated ="Y"  id="gge539" locked="0" c_rotation="180" c_width="7.874" c_height="9.8425" title="R3_2" c_shape="RECT" pasteexpansion="0" solderexpansion="0.4"><polygon  c_etype="pad_shell" points="4166.7792 3116.92 4158.8992 3116.92 4158.8992 3107.08 4166.7792 3107.08" layerid="11" stroke-width="0" /><circle c_etype="pad_hole" cx="4162.8392" cy="3112" r="2.7559" layerid="11" stroke-width="0"/></g><g c_partid="part_pad" c_etype="pinpart" c_origin="4092.3394,3128.5" layerid="11" number="1" net="U1_12" plated ="Y"  id="gge706" locked="0" c_rotation="0" c_width="7.4" c_height="7.4" title="U1_12" c_shape="ELLIPSE" pasteexpansion="0" solderexpansion="0.4"><ellipse c_etype="pad_shell" cx="4092.3394" cy="3128.5" rx="3.7" ry="3.7" layerid="11" stroke-width="0"/><circle c_etype="pad_hole" cx="4092.3392" cy="3128.5" r="1.77" layerid="11" stroke-width="0"/></g><g c_partid="part_pad" c_etype="pinpart" c_origin="4122.3394,3128.5" layerid="11" number="2" net="R2_2" plated ="Y"  id="gge711" locked="0" c_rotation="0" c_width="7.4" c_height="7.4" title="R2_2" c_shape="ELLIPSE" pasteexpansion="0" solderexpansion="0.4"><ellipse c_etype="pad_shell" cx="4122.3394" cy="3128.5" rx="3.7" ry="3.7" layerid="11" stroke-width="0"/><circle c_etype="pad_hole" cx="4122.3392" cy="3128.5" r="1.77" layerid="11" stroke-width="0"/></g><g c_partid="part_pad" c_etype="pinpart" c_origin="4207.1994,3301" layerid="11" number="1" net="U1_16" plated ="Y"  id="gge886" locked="0" c_rotation="180" c_width="7.874" c_height="7.874" title="U1_16" c_shape="ELLIPSE" pasteexpansion="0" solderexpansion="0.4"><ellipse c_etype="pad_shell" cx="4207.1994" cy="3301" rx="3.937" ry="3.937" layerid="11" stroke-width="0"/><circle c_etype="pad_hole" cx="4207.1992" cy="3301" r="2.5591" layerid="11" stroke-width="0"/></g><g c_partid="part_pad" c_etype="pinpart" c_origin="4187.4794,3301" layerid="11" number="2" net="GND" plated ="Y"  id="gge891" locked="0" c_rotation="180" c_width="7.874" c_height="7.874" title="GND" c_shape="ELLIPSE" pasteexpansion="0" solderexpansion="0.4"><ellipse c_etype="pad_shell" cx="4187.4794" cy="3301" rx="3.937" ry="3.937" layerid="11" stroke-width="0"/><circle c_etype="pad_hole" cx="4187.4792" cy="3301" r="2.5591" layerid="11" stroke-width="0"/></g><g c_partid="part_pad" c_etype="pinpart" c_origin="4088.6994,3301" layerid="11" number="1" net="GND" plated ="Y"  id="gge910" locked="0" c_rotation="180" c_width="7.874" c_height="7.874" title="GND" c_shape="ELLIPSE" pasteexpansion="0" solderexpansion="0.4"><ellipse c_etype="pad_shell" cx="4088.6994" cy="3301" rx="3.937" ry="3.937" layerid="11" stroke-width="0"/><circle c_etype="pad_hole" cx="4088.6992" cy="3301" r="2.5591" layerid="11" stroke-width="0"/></g><g c_partid="part_pad" c_etype="pinpart" c_origin="4068.9794,3301" layerid="11" number="2" net="U1_1" plated ="Y"  id="gge915" locked="0" c_rotation="180" c_width="7.874" c_height="7.874" title="U1_1" c_shape="ELLIPSE" pasteexpansion="0" solderexpansion="0.4"><ellipse c_etype="pad_shell" cx="4068.9794" cy="3301" rx="3.937" ry="3.937" layerid="11" stroke-width="0"/><circle c_etype="pad_hole" cx="4068.9792" cy="3301" r="2.5591" layerid="11" stroke-width="0"/></g><g c_partid="part_pad" c_etype="pinpart" c_origin="4056.6782,3134.36" layerid="11" number="1" net="U1_15" plated ="Y"  id="gge958" locked="0" c_rotation="90" c_width="7.874" c_height="7.874" title="U1_15" c_shape="ELLIPSE" pasteexpansion="0" solderexpansion="0.4"><ellipse c_etype="pad_shell" cx="4056.6782" cy="3134.36" rx="3.937" ry="3.937" layerid="11" stroke-width="0"/><circle c_etype="pad_hole" cx="4056.6784" cy="3134.36" r="2.5591" layerid="11" stroke-width="0"/></g><g c_partid="part_pad" c_etype="pinpart" c_origin="4056.6782,3114.64" layerid="11" number="2" net="U1_11" plated ="Y"  id="gge963" locked="0" c_rotation="90" c_width="7.874" c_height="7.874" title="U1_11" c_shape="ELLIPSE" pasteexpansion="0" solderexpansion="0.4"><ellipse c_etype="pad_shell" cx="4056.6782" cy="3114.64" rx="3.937" ry="3.937" layerid="11" stroke-width="0"/><circle c_etype="pad_hole" cx="4056.6784" cy="3114.64" r="2.5591" layerid="11" stroke-width="0"/></g><g c_partid="part_pad" c_etype="pinpart" c_origin="4196.339,3120.5" layerid="11" number="1" net="U1_10" plated ="Y"  id="gge978" locked="0" c_rotation="270" c_width="6.2" c_height="6.2" title="U1_10" c_shape="RECT" pasteexpansion="0" solderexpansion="0.4"><polygon  c_etype="pad_shell" points="4199.4392 3117.4 4199.4392 3123.6 4193.2392 3123.6 4193.2392 3117.4" layerid="11" stroke-width="0" /><circle c_etype="pad_hole" cx="4196.3392" cy="3120.5" r="1.75" layerid="11" stroke-width="0"/></g><g c_partid="part_pad" c_etype="pinpart" c_origin="4345.6784,3095.5" layerid="11" number="1" net="U1_1" plated ="Y"  id="gge993" locked="0" c_rotation="270" c_width="6.2" c_height="6.2" title="U1_1" c_shape="RECT" pasteexpansion="0" solderexpansion="0.4"><polygon  c_etype="pad_shell" points="4348.7786 3092.4 4348.7786 3098.6 4342.5786 3098.6 4342.5786 3092.4" layerid="11" stroke-width="0" /><circle c_etype="pad_hole" cx="4345.6786" cy="3095.5" r="1.75" layerid="11" stroke-width="0"/></g><g c_partid="part_pad" c_etype="pinpart" c_origin="4213.6784,3228.4998" layerid="11" number="1" net="U1_8" plated ="Y"  id="gge1008" locked="0" c_rotation="90" c_width="6.6929" c_height="6.2" title="U1_8" c_shape="RECT" pasteexpansion="0" solderexpansion="0.4"><polygon  c_etype="pad_shell" points="4210.5784 3231.8464 4210.5784 3225.1535 4216.7784 3225.1535 4216.7784 3231.8464" layerid="11" stroke-width="0" /><circle c_etype="pad_hole" cx="4213.6784" cy="3228.5" r="2.1654" layerid="11" stroke-width="0"/></g><g c_partid="part_pad" c_etype="pinpart" c_origin="4213.6784,3218.4998" layerid="11" number="2" net="U1_7" plated ="Y"  id="gge1013" locked="0" c_rotation="90" c_width="6.6929" c_height="6.6929" title="U1_7" c_shape="ELLIPSE" pasteexpansion="0" solderexpansion="0.4"><ellipse c_etype="pad_shell" cx="4213.6784" cy="3218.4998" rx="3.34645" ry="3.34645" layerid="11" stroke-width="0"/><circle c_etype="pad_hole" cx="4213.6784" cy="3218.5" r="2.1654" layerid="11" stroke-width="0"/></g><g c_partid="part_pad" c_etype="pinpart" c_origin="4213.6784,3188.5002" layerid="11" number="1" net="GND" plated ="Y"  id="gge1028" locked="0" c_rotation="90" c_width="6.6929" c_height="6.2" title="GND" c_shape="RECT" pasteexpansion="0" solderexpansion="0.4"><polygon  c_etype="pad_shell" points="4210.5784 3191.8464 4210.5784 3185.1535 4216.7784 3185.1535 4216.7784 3191.8464" layerid="11" stroke-width="0" /><circle c_etype="pad_hole" cx="4213.6784" cy="3188.5" r="2.1654" layerid="11" stroke-width="0"/></g><g c_partid="part_pad" c_etype="pinpart" c_origin="4213.6784,3178.5002" layerid="11" number="2" net="U1_16" plated ="Y"  id="gge1033" locked="0" c_rotation="90" c_width="6.6929" c_height="6.6929" title="U1_16" c_shape="ELLIPSE" pasteexpansion="0" solderexpansion="0.4"><ellipse c_etype="pad_shell" cx="4213.6784" cy="3178.5002" rx="3.34645" ry="3.34645" layerid="11" stroke-width="0"/><circle c_etype="pad_hole" cx="4213.6784" cy="3178.5" r="2.1654" layerid="11" stroke-width="0"/></g><g c_partid="part_pad" c_etype="pinpart" c_origin="4263.6784,3095.5" layerid="11" number="1" net="U1_16" plated ="Y"  id="gge1068" locked="0" c_rotation="0" c_width="6.2" c_height="6.2" title="U1_16" c_shape="RECT" pasteexpansion="0" solderexpansion="0.4"><polygon  c_etype="pad_shell" points="4260.5786 3092.4 4266.7786 3092.4 4266.7786 3098.6 4260.5786 3098.6" layerid="11" stroke-width="0" /><circle c_etype="pad_hole" cx="4263.6786" cy="3095.5" r="1.75" layerid="11" stroke-width="0"/></g><g c_partid="part_pad" c_etype="pinpart" c_origin="4273.6784,3095.5" layerid="11" number="2" net="U1_5" plated ="Y"  id="gge1073" locked="0" c_rotation="0" c_width="6.2" c_height="6.2" title="U1_5" c_shape="ELLIPSE" pasteexpansion="0" solderexpansion="0.4"><ellipse c_etype="pad_shell" cx="4273.6784" cy="3095.5" rx="3.1" ry="3.1" layerid="11" stroke-width="0"/><circle c_etype="pad_hole" cx="4273.6786" cy="3095.5" r="1.75" layerid="11" stroke-width="0"/></g><g c_partid="part_pad" c_etype="pinpart" c_origin="4283.6784,3095.5" layerid="11" number="3" net="U1_6" plated ="Y"  id="gge1078" locked="0" c_rotation="0" c_width="6.2" c_height="6.2" title="U1_6" c_shape="ELLIPSE" pasteexpansion="0" solderexpansion="0.4"><ellipse c_etype="pad_shell" cx="4283.6784" cy="3095.5" rx="3.1" ry="3.1" layerid="11" stroke-width="0"/><circle c_etype="pad_hole" cx="4283.6786" cy="3095.5" r="1.75" layerid="11" stroke-width="0"/></g><g c_partid="part_pad" c_etype="pinpart" c_origin="4293.6784,3095.5" layerid="11" number="4" net="GND" plated ="Y"  id="gge1083" locked="0" c_rotation="0" c_width="6.2" c_height="6.2" title="GND" c_shape="ELLIPSE" pasteexpansion="0" solderexpansion="0.4"><ellipse c_etype="pad_shell" cx="4293.6784" cy="3095.5" rx="3.1" ry="3.1" layerid="11" stroke-width="0"/><circle c_etype="pad_hole" cx="4293.6786" cy="3095.5" r="1.75" layerid="11" stroke-width="0"/></g><g c_partid="part_pad" c_etype="pinpart" c_origin="4167.6996,3301" layerid="11" number="1" net="U1_4" plated ="Y"  id="gge1244" locked="0" c_rotation="180" c_width="7.874" c_height="7.874" title="U1_4" c_shape="ELLIPSE" pasteexpansion="0" solderexpansion="0.4"><ellipse c_etype="pad_shell" cx="4167.6996" cy="3301" rx="3.937" ry="3.937" layerid="11" stroke-width="0"/><circle c_etype="pad_hole" cx="4167.6994" cy="3301" r="2.5591" layerid="11" stroke-width="0"/></g><g c_partid="part_pad" c_etype="pinpart" c_origin="4147.9796,3301" layerid="11" number="2" net="GND" plated ="Y"  id="gge1249" locked="0" c_rotation="180" c_width="7.874" c_height="7.874" title="GND" c_shape="ELLIPSE" pasteexpansion="0" solderexpansion="0.4"><ellipse c_etype="pad_shell" cx="4147.9796" cy="3301" rx="3.937" ry="3.937" layerid="11" stroke-width="0"/><circle c_etype="pad_hole" cx="4147.9794" cy="3301" r="2.5591" layerid="11" stroke-width="0"/></g><g c_partid="part_pad" c_etype="pinpart" c_origin="4128.1996,3301" layerid="11" number="1" net="GND" plated ="Y"  id="gge1268" locked="0" c_rotation="180" c_width="7.874" c_height="7.874" title="GND" c_shape="ELLIPSE" pasteexpansion="0" solderexpansion="0.4"><ellipse c_etype="pad_shell" cx="4128.1996" cy="3301" rx="3.937" ry="3.937" layerid="11" stroke-width="0"/><circle c_etype="pad_hole" cx="4128.1994" cy="3301" r="2.5591" layerid="11" stroke-width="0"/></g><g c_partid="part_pad" c_etype="pinpart" c_origin="4108.4796,3301" layerid="11" number="2" net="U1_3" plated ="Y"  id="gge1273" locked="0" c_rotation="180" c_width="7.874" c_height="7.874" title="U1_3" c_shape="ELLIPSE" pasteexpansion="0" solderexpansion="0.4"><ellipse c_etype="pad_shell" cx="4108.4796" cy="3301" rx="3.937" ry="3.937" layerid="11" stroke-width="0"/><circle c_etype="pad_hole" cx="4108.4794" cy="3301" r="2.5591" layerid="11" stroke-width="0"/></g><g c_partid="part_pad" c_etype="pinpart" c_origin="4213.6782,3168.5" layerid="11" number="1" net="U1_9" plated ="Y"  id="gge1288" locked="0" c_rotation="270" c_width="6.2" c_height="6.2" title="U1_9" c_shape="RECT" pasteexpansion="0" solderexpansion="0.4"><polygon  c_etype="pad_shell" points="4216.7784 3165.4 4216.7784 3171.6 4210.5784 3171.6 4210.5784 3165.4" layerid="11" stroke-width="0" /><circle c_etype="pad_hole" cx="4213.6784" cy="3168.5" r="1.75" layerid="11" stroke-width="0"/></g><g c_partid="part_pad" c_etype="pinpart" c_origin="4213.6784,3208.5002" layerid="11" number="1" net="GND" plated ="Y"  id="gge1303" locked="0" c_rotation="90" c_width="6.6929" c_height="6.2" title="GND" c_shape="RECT" pasteexpansion="0" solderexpansion="0.4"><polygon  c_etype="pad_shell" points="4210.5784 3211.8464 4210.5784 3205.1535 4216.7784 3205.1535 4216.7784 3211.8464" layerid="11" stroke-width="0" /><circle c_etype="pad_hole" cx="4213.6784" cy="3208.5" r="2.1654" layerid="11" stroke-width="0"/></g><g c_partid="part_pad" c_etype="pinpart" c_origin="4213.6784,3198.5002" layerid="11" number="2" net="U1_3" plated ="Y"  id="gge1308" locked="0" c_rotation="90" c_width="6.6929" c_height="6.6929" title="U1_3" c_shape="ELLIPSE" pasteexpansion="0" solderexpansion="0.4"><ellipse c_etype="pad_shell" cx="4213.6784" cy="3198.5002" rx="3.34645" ry="3.34645" layerid="11" stroke-width="0"/><circle c_etype="pad_hole" cx="4213.6784" cy="3198.5" r="2.1654" layerid="11" stroke-width="0"/></g><g c_partid="part_pad" c_etype="pinpart" c_origin="4213.6784,3238.4998" layerid="11" number="1" net="U1_4" plated ="Y"  id="gge1323" locked="0" c_rotation="270" c_width="6.6929" c_height="6.2" title="U1_4" c_shape="RECT" pasteexpansion="0" solderexpansion="0.4"><polygon  c_etype="pad_shell" points="4216.7784 3235.1536 4216.7784 3241.8465 4210.5784 3241.8465 4210.5784 3235.1536" layerid="11" stroke-width="0" /><circle c_etype="pad_hole" cx="4213.6784" cy="3238.5" r="2.1654" layerid="11" stroke-width="0"/></g><g c_partid="part_pad" c_etype="pinpart" c_origin="4213.6784,3248.4998" layerid="11" number="2" net="GND" plated ="Y"  id="gge1328" locked="0" c_rotation="270" c_width="6.6929" c_height="6.6929" title="GND" c_shape="ELLIPSE" pasteexpansion="0" solderexpansion="0.4"><ellipse c_etype="pad_shell" cx="4213.6784" cy="3248.4998" rx="3.34645" ry="3.34645" layerid="11" stroke-width="0"/><circle c_etype="pad_hole" cx="4213.6784" cy="3248.5" r="2.1654" layerid="11" stroke-width="0"/></g><g c_partid="part_pad" c_etype="pinpart" c_origin="4072.8186,3081" layerid="11" number="1" net="GND" plated ="Y"  id="gge790" locked="0" c_rotation="0" c_width="7.874" c_height="7.874" title="GND" c_shape="ELLIPSE" pasteexpansion="0" solderexpansion="0.4"><ellipse c_etype="pad_shell" cx="4072.8186" cy="3081" rx="3.937" ry="3.937" layerid="11" stroke-width="0"/><circle c_etype="pad_hole" cx="4072.8184" cy="3081" r="2.5591" layerid="11" stroke-width="0"/></g><g c_partid="part_pad" c_etype="pinpart" c_origin="4092.5386,3081" layerid="11" number="2" net="P1-12V_2" plated ="Y"  id="gge795" locked="0" c_rotation="0" c_width="7.874" c_height="7.874" title="P1-12V_2" c_shape="ELLIPSE" pasteexpansion="0" solderexpansion="0.4"><ellipse c_etype="pad_shell" cx="4092.5386" cy="3081" rx="3.937" ry="3.937" layerid="11" stroke-width="0"/><circle c_etype="pad_hole" cx="4092.5384" cy="3081" r="2.5591" layerid="11" stroke-width="0"/></g><g c_partid="part_via" c_etype="pinpart" c_shapetype="group" net="U1_11" c_origin="4049.1784,3197" layerid="11" id="gge3414" locked="0" solderexpansion=""><circle cx="4049.1784" cy="3197" r="1.2" stroke-width="0" c_etype="pad_shell"/><circle cx="4049.1784" cy="3197" r="0.6"  stroke-width="0" c_etype="pad_hole"/></g><g c_partid="part_via" c_etype="pinpart" c_shapetype="group" net="U1_11" c_origin="4073.6784,3196.5" layerid="11" id="gge3412" locked="0" solderexpansion=""><circle cx="4073.6784" cy="3196.5" r="1.2" stroke-width="0" c_etype="pad_shell"/><circle cx="4073.6784" cy="3196.5" r="0.6"  stroke-width="0" c_etype="pad_hole"/></g><g c_partid="part_via" c_etype="pinpart" c_shapetype="group" net="U1_6" c_origin="4195.6784,3258.5" layerid="11" id="gge3496" locked="0" solderexpansion=""><circle cx="4195.6784" cy="3258.5" r="1.2" stroke-width="0" c_etype="pad_shell"/><circle cx="4195.6784" cy="3258.5" r="0.6"  stroke-width="0" c_etype="pad_hole"/></g><g c_partid="part_via" c_etype="pinpart" c_shapetype="group" net="U1_14" c_origin="4124.8392,3181.5" layerid="11" id="gge3640" locked="0" solderexpansion=""><circle cx="4124.8392" cy="3181.5" r="1.2" stroke-width="0" c_etype="pad_shell"/><circle cx="4124.8392" cy="3181.5" r="0.6"  stroke-width="0" c_etype="pad_hole"/></g><g c_partid="part_via" c_etype="pinpart" c_shapetype="group" net="U1_14" c_origin="4145.8392,3181.5" layerid="11" id="gge3642" locked="0" solderexpansion=""><circle cx="4145.8392" cy="3181.5" r="1.2" stroke-width="0" c_etype="pad_shell"/><circle cx="4145.8392" cy="3181.5" r="0.6"  stroke-width="0" c_etype="pad_hole"/></g><g c_partid="part_via" c_etype="pinpart" c_shapetype="group" net="U1_14" c_origin="4197.3392,3181.5" layerid="11" id="gge3644" locked="0" solderexpansion=""><circle cx="4197.3392" cy="3181.5" r="1.2" stroke-width="0" c_etype="pad_shell"/><circle cx="4197.3392" cy="3181.5" r="0.6"  stroke-width="0" c_etype="pad_hole"/></g><g c_partid="part_via" c_etype="pinpart" c_shapetype="group" net="U1_14" c_origin="4197.3392,3157" layerid="11" id="gge3646" locked="0" solderexpansion=""><circle cx="4197.3392" cy="3157" r="1.2" stroke-width="0" c_etype="pad_shell"/><circle cx="4197.3392" cy="3157" r="0.6"  stroke-width="0" c_etype="pad_hole"/></g><g c_partid="part_via" c_etype="pinpart" c_shapetype="group" net="U1_6" c_origin="4257.8392,3258.5" layerid="11" id="gge3663" locked="0" solderexpansion=""><circle cx="4257.8392" cy="3258.5" r="1.2" stroke-width="0" c_etype="pad_shell"/><circle cx="4257.8392" cy="3258.5" r="0.6"  stroke-width="0" c_etype="pad_hole"/></g><g c_partid="part_via" c_etype="pinpart" c_shapetype="group" net="U1_6" c_origin="4228.8392,3258.5" layerid="11" id="gge3667" locked="0" solderexpansion=""><circle cx="4228.8392" cy="3258.5" r="1.2" stroke-width="0" c_etype="pad_shell"/><circle cx="4228.8392" cy="3258.5" r="0.6"  stroke-width="0" c_etype="pad_hole"/></g><g c_partid="part_via" c_etype="pinpart" c_shapetype="group" net="U1_5" c_origin="4195.3392,3270" layerid="11" id="gge3677" locked="0" solderexpansion=""><circle cx="4195.3392" cy="3270" r="1.2" stroke-width="0" c_etype="pad_shell"/><circle cx="4195.3392" cy="3270" r="0.6"  stroke-width="0" c_etype="pad_hole"/></g><g c_partid="part_via" c_etype="pinpart" c_shapetype="group" net="U1_5" c_origin="4222.8392,3270" layerid="11" id="gge3679" locked="0" solderexpansion=""><circle cx="4222.8392" cy="3270" r="1.2" stroke-width="0" c_etype="pad_shell"/><circle cx="4222.8392" cy="3270" r="0.6"  stroke-width="0" c_etype="pad_hole"/></g><g c_partid="part_via" c_etype="pinpart" c_shapetype="group" net="U1_5" c_origin="4227.8392,3270" layerid="11" id="gge3681" locked="0" solderexpansion=""><circle cx="4227.8392" cy="3270" r="1.2" stroke-width="0" c_etype="pad_shell"/><circle cx="4227.8392" cy="3270" r="0.6"  stroke-width="0" c_etype="pad_hole"/></g><g c_partid="part_via" c_etype="pinpart" c_shapetype="group" net="U1_5" c_origin="4246.8392,3270" layerid="11" id="gge3683" locked="0" solderexpansion=""><circle cx="4246.8392" cy="3270" r="1.2" stroke-width="0" c_etype="pad_shell"/><circle cx="4246.8392" cy="3270" r="0.6"  stroke-width="0" c_etype="pad_hole"/></g><g c_partid="part_via" c_etype="pinpart" c_shapetype="group" net="GND" c_origin="4248.3392,3281.5" layerid="11" id="gge3693" locked="0" solderexpansion=""><circle cx="4248.3392" cy="3281.5" r="1.2" stroke-width="0" c_etype="pad_shell"/><circle cx="4248.3392" cy="3281.5" r="0.6"  stroke-width="0" c_etype="pad_hole"/></g><g c_partid="part_via" c_etype="pinpart" c_shapetype="group" net="GND" c_origin="4228.3392,3280.5" layerid="11" id="gge3695" locked="0" solderexpansion=""><circle cx="4228.3392" cy="3280.5" r="1.2" stroke-width="0" c_etype="pad_shell"/><circle cx="4228.3392" cy="3280.5" r="0.6"  stroke-width="0" c_etype="pad_hole"/></g><g c_partid="part_via" c_etype="pinpart" c_shapetype="group" net="U1_13" c_origin="4114.8392,3154.5" layerid="11" id="gge3715" locked="0" solderexpansion=""><circle cx="4114.8392" cy="3154.5" r="1.2" stroke-width="0" c_etype="pad_shell"/><circle cx="4114.8392" cy="3154.5" r="0.6"  stroke-width="0" c_etype="pad_hole"/></g><g c_partid="part_via" c_etype="pinpart" c_shapetype="group" net="U1_13" c_origin="4132.3392,3154" layerid="11" id="gge3717" locked="0" solderexpansion=""><circle cx="4132.3392" cy="3154" r="1.2" stroke-width="0" c_etype="pad_shell"/><circle cx="4132.3392" cy="3154" r="0.6"  stroke-width="0" c_etype="pad_hole"/></g><g c_partid="part_hole" c_etype="pinpart" c_shapetype="group" c_origin="4372.6784,3275" layerid="11" id="gge2373" locked="0" ><circle cx="4372.6784" cy="3275" r="4"  stroke-width="1" fill-opacity="0" /></g><g c_partid="part_hole" c_etype="pinpart" c_shapetype="group" c_origin="4236.6784,3095.5" layerid="11" id="gge2367" locked="0" ><circle cx="4236.6784" cy="3095.5" r="4"  stroke-width="1" fill-opacity="0" /></g><g c_partid="part_hole" c_etype="pinpart" c_shapetype="group" c_origin="4372.6784,3095.5" layerid="11" id="gge2359" locked="0" ><circle cx="4372.6784" cy="3095.5" r="4"  stroke-width="1" fill-opacity="0" /></g><g c_partid="part_hole" c_etype="pinpart" c_shapetype="group" c_origin="4383.1784,3296" layerid="11" id="gge2259" locked="0" ><circle cx="4383.1784" cy="3296" r="4"  stroke-width="1" fill-opacity="0" /></g><g c_partid="part_hole" c_etype="pinpart" c_shapetype="group" c_origin="4049.1782,3292.5" layerid="11" id="gge2255" locked="0" ><circle cx="4049.1782" cy="3292.5" r="4"  stroke-width="1" fill-opacity="0" /></g><g c_partid="part_hole" c_etype="pinpart" c_shapetype="group" c_origin="4048.1784,3073.5" layerid="11" id="gge2251" locked="0" ><circle cx="4048.1784" cy="3073.5" r="4"  stroke-width="1" fill-opacity="0" /></g><g c_partid="part_hole" c_etype="pinpart" c_shapetype="group" c_origin="4383.6784,3071" layerid="11" id="gge2247" locked="0" ><circle cx="4383.6784" cy="3071" r="4"  stroke-width="1" fill-opacity="0" /></g></svg>